<?xml version="1.0" encoding="UTF-8" standalone="no"?>
<!-- Created with Inkscape (http://www.inkscape.org/) -->

<svg
   xmlns:dc="http://purl.org/dc/elements/1.1/"
   xmlns:cc="http://creativecommons.org/ns#"
   xmlns:rdf="http://www.w3.org/1999/02/22-rdf-syntax-ns#"
   xmlns:svg="http://www.w3.org/2000/svg"
   xmlns="http://www.w3.org/2000/svg"
   xmlns:sodipodi="http://sodipodi.sourceforge.net/DTD/sodipodi-0.dtd"
   xmlns:inkscape="http://www.inkscape.org/namespaces/inkscape"
   version="1.1"
   id="svg2"
   xml:space="preserve"
   width="1066.6667"
   height="800"
   viewBox="0 0 1066.6667 800"
   sodipodi:docname="Milk &amp; Fruit.svg"
   inkscape:version="0.92.3 (2405546, 2018-03-11)"><metadata
     id="metadata8"><rdf:RDF><cc:Work
         rdf:about=""><dc:format>image/svg+xml</dc:format><dc:type
           rdf:resource="http://purl.org/dc/dcmitype/StillImage" /><dc:title /></cc:Work></rdf:RDF></metadata><defs
     id="defs6"><clipPath
       clipPathUnits="userSpaceOnUse"
       id="clipPath18"><path
         d="m 9.613,301.294 c 0,-134.486 173.033,-243.508 386.48,-243.508 v 0 c 213.446,0 386.479,109.022 386.479,243.508 v 0 c 0,134.485 -173.033,243.507 -386.479,243.507 v 0 C 182.646,544.801 9.613,435.779 9.613,301.294"
         id="path16"
         inkscape:connector-curvature="0" /></clipPath><linearGradient
       x1="0"
       y1="0"
       x2="1"
       y2="0"
       gradientUnits="userSpaceOnUse"
       gradientTransform="matrix(772.95807,0,0,-772.95807,9.6132488,301.29358)"
       spreadMethod="pad"
       id="linearGradient32"><stop
         style="stop-opacity:1;stop-color:#e90000"
         offset="0"
         id="stop24" /><stop
         style="stop-opacity:1;stop-color:#e90000"
         offset="0.49"
         id="stop26" /><stop
         style="stop-opacity:1;stop-color:#0e9000"
         offset="0.51"
         id="stop28" /><stop
         style="stop-opacity:1;stop-color:#0e9000"
         offset="1"
         id="stop30" /></linearGradient><clipPath
       clipPathUnits="userSpaceOnUse"
       id="clipPath42"><path
         d="M 0,600 H 800 V 0 H 0 Z"
         id="path40"
         inkscape:connector-curvature="0" /></clipPath><clipPath
       clipPathUnits="userSpaceOnUse"
       id="clipPath86"><path
         d="m 300.042,521.29 c -2.287,-0.414 -4.316,-1.071 -6.08,-1.962 v 0 c -1.764,-0.891 -3.094,-2.017 -3.988,-3.366 v 0 c -0.894,-1.35 -1.192,-2.869 -0.902,-4.552 v 0 c 0.258,-1.258 0.817,-2.32 1.671,-3.194 v 0 c 0.855,-0.874 1.811,-1.551 2.868,-2.032 v 0 c 1.059,-0.479 2.132,-0.842 3.221,-1.087 v 0 c 1.968,-0.416 3.929,-0.844 5.884,-1.283 v 0 c 3.4,-0.745 5.259,-2.155 5.607,-4.176 v 0 c 0.256,-1.492 -0.289,-2.722 -1.626,-3.698 v 0 c -1.337,-0.975 -2.891,-1.663 -4.668,-2.068 v 0 c -1.674,-0.254 -3.405,-0.256 -5.201,-0.009 v 0 c -1.796,0.248 -3.536,0.8 -5.224,1.657 v 0 c 0.801,-1.748 1.597,-3.496 2.389,-5.247 v 0 c 2.982,-0.236 5.608,-0.147 7.898,0.285 v 0 c 2.424,0.457 4.535,1.219 6.342,2.3 v 0 c 1.807,1.08 3.167,2.386 4.079,3.928 v 0 c 0.911,1.542 1.288,3.196 1.121,4.965 v 0 c -0.269,1.664 -1.102,2.972 -2.514,3.916 v 0 c -1.409,0.942 -2.933,1.606 -4.566,1.988 v 0 c -1.438,0.365 -2.88,0.724 -4.327,1.076 v 0 c -2.155,0.495 -3.878,1.007 -5.163,1.551 v 0 c -1.284,0.543 -2.054,1.448 -2.302,2.722 v 0 c -0.058,0.297 -0.072,0.624 -0.044,0.981 v 0 c 0.07,0.939 0.605,1.779 1.606,2.516 v 0 c 1.003,0.737 2.258,1.246 3.762,1.52 v 0 c 1.378,0.251 2.792,0.273 4.236,0.064 v 0 c 1.443,-0.209 2.778,-0.666 3.999,-1.368 v 0 c -0.271,1.617 -0.541,3.234 -0.811,4.851 v 0 c -0.92,0.074 -1.814,0.111 -2.68,0.111 v 0 c -1.627,0 -3.157,-0.13 -4.587,-0.389"
         id="path84"
         inkscape:connector-curvature="0" /></clipPath><linearGradient
       x1="0"
       y1="0"
       x2="1"
       y2="0"
       gradientUnits="userSpaceOnUse"
       gradientTransform="matrix(212.37323,0,0,-212.37323,288.9646,509.64365)"
       spreadMethod="pad"
       id="linearGradient100"><stop
         style="stop-opacity:1;stop-color:#e90000"
         offset="0"
         id="stop92" /><stop
         style="stop-opacity:1;stop-color:#e90000"
         offset="0.49"
         id="stop94" /><stop
         style="stop-opacity:1;stop-color:#0e9000"
         offset="0.51"
         id="stop96" /><stop
         style="stop-opacity:1;stop-color:#0e9000"
         offset="1"
         id="stop98" /></linearGradient><clipPath
       clipPathUnits="userSpaceOnUse"
       id="clipPath110"><path
         d="m 330.594,526.003 c -2.401,-0.336 -4.625,-1.022 -6.66,-2.049 v 0 c -2.035,-1.028 -3.77,-2.343 -5.199,-3.935 v 0 c -1.43,-1.592 -2.461,-3.415 -3.095,-5.463 v 0 c -0.636,-2.047 -0.778,-4.22 -0.442,-6.516 v 0 c 0.002,-0.014 -10e-4,-0.039 -0.007,-0.072 v 0 c -0.007,-0.034 -0.026,-0.072 -0.06,-0.113 v 0 c 0.425,-2.465 1.555,-4.703 3.362,-6.728 v 0 c 1.808,-2.026 4.16,-3.536 7.053,-4.556 v 0 c 2.895,-1.018 6.067,-1.31 9.555,-0.89 v 0 c 3.239,0.506 6.028,1.615 8.397,3.346 v 0 c 2.367,1.733 4.133,3.848 5.295,6.364 v 0 c 1.161,2.516 1.636,5.141 1.398,7.883 v 0 c -0.287,2.196 -0.983,4.159 -2.1,5.886 v 0 c -1.117,1.726 -2.565,3.156 -4.347,4.281 v 0 c -1.781,1.126 -3.804,1.912 -6.061,2.352 v 0 c -1.345,0.261 -2.728,0.392 -4.148,0.392 v 0 c -0.964,0 -1.945,-0.06 -2.941,-0.182 m -2.144,-26.299 c -2.035,0.802 -3.748,2.021 -5.138,3.665 v 0 c -1.388,1.644 -2.294,3.529 -2.7,5.662 v 0 c -0.365,2.51 -0.172,4.741 0.594,6.692 v 0 c 0.766,1.951 2,3.535 3.702,4.741 v 0 c 1.702,1.206 3.731,2 6.073,2.374 v 0 c 2.384,0.291 4.545,0.027 6.468,-0.784 v 0 c 1.921,-0.811 3.494,-2.012 4.718,-3.594 v 0 c 1.223,-1.58 2.037,-3.335 2.455,-5.256 v 0 c 0.125,-0.639 0.204,-1.12 0.235,-1.443 v 0 c 0.139,-1.421 0.057,-2.809 -0.242,-4.167 v 0 c -0.299,-1.359 -0.849,-2.636 -1.646,-3.833 v 0 c -0.796,-1.198 -1.869,-2.219 -3.218,-3.067 v 0 c -1.348,-0.848 -2.965,-1.44 -4.855,-1.783 v 0 c -0.576,-0.069 -1.145,-0.103 -1.705,-0.103 v 0 c -1.645,0 -3.223,0.298 -4.741,0.896"
         id="path108"
         inkscape:connector-curvature="0" /></clipPath><linearGradient
       x1="0"
       y1="0"
       x2="1"
       y2="0"
       gradientUnits="userSpaceOnUse"
       gradientTransform="matrix(212.37323,0,0,-212.37323,288.9646,509.64365)"
       spreadMethod="pad"
       id="linearGradient124"><stop
         style="stop-opacity:1;stop-color:#e90000"
         offset="0"
         id="stop116" /><stop
         style="stop-opacity:1;stop-color:#e90000"
         offset="0.49"
         id="stop118" /><stop
         style="stop-opacity:1;stop-color:#0e9000"
         offset="0.51"
         id="stop120" /><stop
         style="stop-opacity:1;stop-color:#0e9000"
         offset="1"
         id="stop122" /></linearGradient><clipPath
       clipPathUnits="userSpaceOnUse"
       id="clipPath134"><path
         d="m 363.692,528.203 c -3.853,-0.23 -7.705,-0.501 -11.554,-0.814 v 0 c -0.027,-0.06 -0.054,-0.12 -0.082,-0.181 v 0 c 0.718,-0.18 1.257,-0.507 1.617,-0.981 v 0 c 0.36,-0.474 0.599,-1.039 0.718,-1.695 v 0 c 0.119,-0.656 0.227,-1.605 0.323,-2.848 v 0 c 0.437,-5.647 0.874,-11.294 1.311,-16.942 v 0 c 0.148,-1.925 0.148,-3.339 0,-4.244 v 0 c -0.148,-0.904 -0.662,-1.561 -1.538,-1.971 v 0 c 0.004,-0.058 0.009,-0.115 0.014,-0.173 v 0 c 2.94,0.24 5.882,0.453 8.825,0.641 v 0 c -0.001,0.029 -0.003,0.058 -0.005,0.086 v 0 c -0.636,0.277 -1.111,0.629 -1.422,1.056 v 0 c -0.312,0.427 -0.54,0.996 -0.684,1.709 v 0 c -0.145,0.712 -0.265,1.762 -0.358,3.15 v 0 c -0.449,6.611 -0.898,13.221 -1.347,19.833 v 0 c 1.19,0.318 2.23,0.505 3.116,0.559 v 0 c 1.775,0.11 3.296,-0.17 4.555,-0.83 v 0 c 1.261,-0.663 1.995,-1.799 2.21,-3.404 v 0 c 0.064,-1.31 -0.296,-2.452 -1.074,-3.426 v 0 c -0.779,-0.975 -1.797,-1.763 -3.056,-2.366 v 0 c -1.259,-0.603 -2.561,-1.043 -3.909,-1.32 v 0 c 1.609,-1.952 3.2,-3.912 4.775,-5.879 v 0 c 1.976,-2.012 3.928,-4.036 5.858,-6.071 v 0 c 0.706,-0.819 1.466,-1.435 2.281,-1.848 v 0 c 0.816,-0.412 1.829,-0.595 3.04,-0.55 v 0 c 1.592,0.056 3.185,0.107 4.777,0.149 v 0 c -1.89,1.096 -3.453,2.12 -4.681,3.082 v 0 c -1.228,0.963 -2.121,1.754 -2.672,2.38 v 0 c -2.53,2.721 -5.099,5.423 -7.708,8.105 v 0 c 2.344,0.807 4.119,1.86 5.324,3.176 v 0 c 1.205,1.315 1.874,2.733 1.995,4.26 v 0 c -0.091,2.296 -1.012,4.151 -2.782,5.55 v 0 c -1.546,1.222 -3.749,1.846 -6.594,1.846 v 0 c -0.411,0 -0.836,-0.013 -1.273,-0.039"
         id="path132"
         inkscape:connector-curvature="0" /></clipPath><linearGradient
       x1="0"
       y1="0"
       x2="1"
       y2="0"
       gradientUnits="userSpaceOnUse"
       gradientTransform="matrix(212.37323,0,0,-212.37323,288.9646,509.64365)"
       spreadMethod="pad"
       id="linearGradient148"><stop
         style="stop-opacity:1;stop-color:#e90000"
         offset="0"
         id="stop140" /><stop
         style="stop-opacity:1;stop-color:#e90000"
         offset="0.49"
         id="stop142" /><stop
         style="stop-opacity:1;stop-color:#0e9000"
         offset="0.51"
         id="stop144" /><stop
         style="stop-opacity:1;stop-color:#0e9000"
         offset="1"
         id="stop146" /></linearGradient><clipPath
       clipPathUnits="userSpaceOnUse"
       id="clipPath158"><path
         d="m 399.07,528.969 c 1.157,-0.324 1.727,-1.159 1.714,-2.5 v 0 c -0.009,-0.958 -0.3,-2.062 -0.868,-3.311 v 0 c -2.577,-5.97 -5.068,-11.961 -7.474,-17.967 v 0 c -2.687,6.786 -5.481,13.551 -8.379,20.292 v 0 c -0.459,1.23 -0.763,2.214 -0.909,2.953 v 0 c 0.07,0.146 0.101,0.337 0.096,0.575 v 0 c -2.428,-0.056 -4.854,-0.128 -7.28,-0.217 v 0 c 10e-4,-0.057 0.003,-0.115 0.006,-0.173 v 0 c 0.823,-0.503 1.445,-1.064 1.867,-1.681 v 0 c 0.423,-0.617 0.889,-1.512 1.396,-2.686 v 0 c 2.879,-6.498 5.66,-13.018 8.342,-19.559 v 0 c 0.575,-1.397 1.124,-2.401 1.651,-3.014 v 0 c 0.527,-0.614 1.47,-1.316 2.822,-2.113 v 0 c 0.485,-0.279 0.97,-0.557 1.453,-0.836 v 0 c 4.067,10.156 8.382,20.263 12.942,30.311 v 0 c -2.459,0.05 -4.919,0.083 -7.378,0.098 v 0 c -0.001,-0.057 -0.001,-0.115 -0.001,-0.172"
         id="path156"
         inkscape:connector-curvature="0" /></clipPath><linearGradient
       x1="0"
       y1="0"
       x2="1"
       y2="0"
       gradientUnits="userSpaceOnUse"
       gradientTransform="matrix(212.37323,0,0,-212.37323,288.9646,509.64365)"
       spreadMethod="pad"
       id="linearGradient172"><stop
         style="stop-opacity:1;stop-color:#e90000"
         offset="0"
         id="stop164" /><stop
         style="stop-opacity:1;stop-color:#e90000"
         offset="0.49"
         id="stop166" /><stop
         style="stop-opacity:1;stop-color:#0e9000"
         offset="0.51"
         id="stop168" /><stop
         style="stop-opacity:1;stop-color:#0e9000"
         offset="1"
         id="stop170" /></linearGradient><clipPath
       clipPathUnits="userSpaceOnUse"
       id="clipPath182"><path
         d="m 408.573,528.909 c 0.975,-0.355 1.573,-0.968 1.798,-1.836 v 0 c 0.225,-0.867 0.317,-2 0.277,-3.397 v 0 c -0.184,-6.477 -0.368,-12.952 -0.552,-19.428 v 0 c -0.068,-2.356 -0.81,-3.753 -2.223,-4.202 v 0 c -10e-4,-0.057 -0.003,-0.115 -0.005,-0.172 v 0 c 6.489,-0.158 12.975,-0.44 19.455,-0.847 v 0 c 0.821,1.888 1.65,3.773 2.486,5.656 v 0 c -0.03,0.002 -0.06,0.005 -0.09,0.006 v 0 c -2.275,-1.531 -4.771,-2.28 -7.517,-2.259 v 0 c -0.25,0.07 -0.563,0.115 -0.938,0.134 v 0 c -0.618,0.067 -1.541,0.185 -2.769,0.349 v 0 c -1.23,0.164 -2.448,0.318 -3.655,0.464 v 0 l 0.397,10.532 c 1.269,-0.048 2.536,-0.1 3.804,-0.158 v 0 c 2.12,-0.096 3.444,-0.595 3.97,-1.482 v 0 c 0.047,-0.003 0.093,-0.005 0.139,-0.007 v 0 c 0.085,1.576 0.169,3.152 0.252,4.728 v 0 c -0.047,0.002 -0.094,0.005 -0.142,0.008 v 0 c -0.355,-0.141 -1.09,-0.232 -2.204,-0.278 v 0 c -0.249,0.069 -0.634,0.117 -1.154,0.141 v 0 c -1.515,0.07 -3.03,0.134 -4.546,0.192 v 0 c 0.105,2.757 0.208,5.516 0.313,8.273 v 0 c 0.16,0.016 0.353,0.037 0.578,0.064 v 0 c 0.225,0.027 0.487,0.048 0.783,0.061 v 0 c 0.298,0.013 0.729,0.016 1.294,0.007 v 0 c 0.565,-0.011 1.29,-0.035 2.179,-0.077 v 0 c 1.52,-0.071 2.727,-0.254 3.622,-0.544 v 0 c 0.895,-0.29 1.666,-0.787 2.313,-1.489 v 0 c 0.036,-0.002 0.072,-0.003 0.107,-0.006 v 0 c 0.101,1.723 0.202,3.446 0.303,5.169 v 0 c -0.037,0.002 -0.073,0.004 -0.108,0.007 v 0 c -0.282,-0.114 -0.801,-0.203 -1.554,-0.27 v 0 c -0.19,0.068 -0.45,0.111 -0.779,0.129 v 0 c -5.275,0.285 -10.553,0.491 -15.832,0.619 v 0 c 0,-0.029 -10e-4,-0.058 -0.002,-0.087"
         id="path180"
         inkscape:connector-curvature="0" /></clipPath><linearGradient
       x1="0"
       y1="0"
       x2="1"
       y2="0"
       gradientUnits="userSpaceOnUse"
       gradientTransform="matrix(212.37323,0,0,-212.37323,288.9646,509.64365)"
       spreadMethod="pad"
       id="linearGradient196"><stop
         style="stop-opacity:1;stop-color:#e90000"
         offset="0"
         id="stop188" /><stop
         style="stop-opacity:1;stop-color:#e90000"
         offset="0.49"
         id="stop190" /><stop
         style="stop-opacity:1;stop-color:#0e9000"
         offset="0.51"
         id="stop192" /><stop
         style="stop-opacity:1;stop-color:#0e9000"
         offset="1"
         id="stop194" /></linearGradient><clipPath
       clipPathUnits="userSpaceOnUse"
       id="clipPath206"><path
         d="m 430.013,523.129 c 0.067,-0.005 0.136,-0.009 0.203,-0.014 v 0 c 1.348,1.06 3.4,1.497 6.147,1.286 v 0 c 1.373,-0.105 2.745,-0.216 4.117,-0.332 v 0 c -0.607,-7.177 -1.214,-14.354 -1.822,-21.531 v 0 c -0.198,-2.327 -1.02,-3.648 -2.46,-3.972 v 0 c -0.004,-0.058 -0.009,-0.115 -0.014,-0.173 v 0 c 3.101,-0.249 6.199,-0.527 9.295,-0.833 v 0 c 0.006,0.057 0.012,0.114 0.017,0.172 v 0 c -0.983,0.669 -1.596,1.367 -1.835,2.099 v 0 c -0.237,0.733 -0.315,1.554 -0.229,2.465 v 0 c 0.668,7.11 1.337,14.22 2.005,21.33 v 0 c 1.505,-0.142 3.009,-0.29 4.513,-0.443 v 0 c 1.1,-0.114 1.981,-0.327 2.646,-0.638 v 0 c 0.663,-0.311 1.09,-0.814 1.278,-1.509 v 0 c 0.068,-0.008 0.135,-0.015 0.204,-0.022 v 0 c 0.697,1.687 1.399,3.374 2.108,5.059 v 0 c -0.069,0.008 -0.136,0.016 -0.205,0.024 v 0 c -0.452,-0.188 -1.319,-0.21 -2.602,-0.07 v 0 c -6.287,0.682 -12.583,1.252 -18.886,1.711 v 0 c -1.054,0.077 -1.788,0.247 -2.207,0.514 v 0 c -0.065,0.005 -0.129,0.009 -0.193,0.014 v 0 c -0.7,-1.712 -1.393,-3.424 -2.08,-5.137"
         id="path204"
         inkscape:connector-curvature="0" /></clipPath><linearGradient
       x1="0"
       y1="0"
       x2="1"
       y2="0"
       gradientUnits="userSpaceOnUse"
       gradientTransform="matrix(212.37323,0,0,-212.37323,288.9646,509.64365)"
       spreadMethod="pad"
       id="linearGradient220"><stop
         style="stop-opacity:1;stop-color:#e90000"
         offset="0"
         id="stop212" /><stop
         style="stop-opacity:1;stop-color:#e90000"
         offset="0.49"
         id="stop214" /><stop
         style="stop-opacity:1;stop-color:#0e9000"
         offset="0.51"
         id="stop216" /><stop
         style="stop-opacity:1;stop-color:#0e9000"
         offset="1"
         id="stop218" /></linearGradient><clipPath
       clipPathUnits="userSpaceOnUse"
       id="clipPath230"><path
         d="m 457.013,525.532 c 0.939,-0.441 1.481,-1.107 1.627,-1.991 v 0 c 0.146,-0.885 0.135,-2.021 -0.032,-3.408 v 0 c -0.769,-6.434 -1.539,-12.866 -2.309,-19.298 v 0 c -0.281,-2.34 -1.148,-3.664 -2.597,-3.983 v 0 c -0.008,-0.057 -0.014,-0.114 -0.02,-0.172 v 0 c 6.456,-0.745 12.903,-1.615 19.335,-2.611 v 0 c 0.991,1.806 1.99,3.608 2.995,5.407 v 0 c -0.03,0.004 -0.06,0.01 -0.091,0.014 v 0 c -2.409,-1.318 -4.967,-1.838 -7.708,-1.567 v 0 c -0.242,0.094 -0.55,0.167 -0.923,0.22 v 0 c -0.611,0.123 -1.521,0.325 -2.733,0.599 v 0 c -1.211,0.275 -2.413,0.539 -3.604,0.795 v 0 c 0.45,3.484 0.9,6.968 1.35,10.453 v 0 c 1.261,-0.163 2.521,-0.331 3.781,-0.504 v 0 c 2.107,-0.288 3.384,-0.906 3.828,-1.836 v 0 c 0.045,-0.008 0.092,-0.014 0.138,-0.021 v 0 c 0.227,1.562 0.453,3.125 0.679,4.686 v 0 c -0.047,0.007 -0.094,0.014 -0.141,0.021 v 0 c -0.367,-0.108 -1.108,-0.132 -2.224,-0.077 v 0 c -0.243,0.093 -0.622,0.175 -1.139,0.246 v 0 c -1.506,0.208 -3.012,0.409 -4.519,0.604 v 0 c 0.353,2.737 0.707,5.474 1.06,8.211 v 0 c 0.161,10e-4 0.356,0.005 0.584,0.012 v 0 c 0.226,0.007 0.489,0.003 0.787,-0.011 v 0 c 0.298,-0.014 0.728,-0.051 1.29,-0.111 v 0 c 0.563,-0.061 1.286,-0.152 2.168,-0.274 v 0 c 1.511,-0.209 2.7,-0.502 3.567,-0.872 v 0 c 0.865,-0.37 1.591,-0.934 2.173,-1.693 v 0 c 0.036,-0.004 0.071,-0.01 0.106,-0.015 v 0 c 0.257,1.706 0.513,3.414 0.77,5.12 v 0 c -0.036,0.005 -0.072,0.011 -0.107,0.016 v 0 c -0.291,-0.088 -0.817,-0.129 -1.574,-0.127 v 0 c -0.185,0.085 -0.44,0.152 -0.768,0.199 v 0 c -5.238,0.763 -10.486,1.448 -15.739,2.055 v 0 c -0.004,-0.029 -0.007,-0.058 -0.01,-0.087"
         id="path228"
         inkscape:connector-curvature="0" /></clipPath><linearGradient
       x1="0"
       y1="0"
       x2="1"
       y2="0"
       gradientUnits="userSpaceOnUse"
       gradientTransform="matrix(212.37323,0,0,-212.37323,288.9646,509.64365)"
       spreadMethod="pad"
       id="linearGradient244"><stop
         style="stop-opacity:1;stop-color:#e90000"
         offset="0"
         id="stop236" /><stop
         style="stop-opacity:1;stop-color:#e90000"
         offset="0.49"
         id="stop238" /><stop
         style="stop-opacity:1;stop-color:#0e9000"
         offset="0.51"
         id="stop240" /><stop
         style="stop-opacity:1;stop-color:#0e9000"
         offset="1"
         id="stop242" /></linearGradient><clipPath
       clipPathUnits="userSpaceOnUse"
       id="clipPath254"><path
         d="m 488.064,521.012 c -1.965,-0.205 -3.607,-0.782 -4.922,-1.726 v 0 c -1.314,-0.942 -2.131,-2.256 -2.461,-3.932 v 0 c -0.206,-1.266 -0.064,-2.458 0.422,-3.58 v 0 c 0.485,-1.12 1.137,-2.093 1.953,-2.919 v 0 c 0.815,-0.825 1.688,-1.546 2.617,-2.162 v 0 c 1.69,-1.09 3.369,-2.189 5.039,-3.296 v 0 c 2.912,-1.909 4.149,-3.888 3.753,-5.901 v 0 c -0.292,-1.485 -1.241,-2.439 -2.838,-2.875 v 0 c -1.598,-0.435 -3.294,-0.523 -5.101,-0.268 v 0 c -1.652,0.358 -3.269,0.973 -4.858,1.844 v 0 c -1.588,0.872 -3.014,2.006 -4.284,3.409 v 0 c 0.125,-1.918 0.245,-3.836 0.36,-5.753 v 0 c 2.698,-1.283 5.181,-2.135 7.473,-2.547 v 0 c 2.428,-0.438 4.672,-0.478 6.747,-0.112 v 0 c 2.076,0.364 3.814,1.1 5.217,2.216 v 0 c 1.402,1.115 2.346,2.525 2.82,4.238 v 0 c 0.342,1.65 0.027,3.17 -0.955,4.554 v 0 c -0.984,1.384 -2.173,2.548 -3.564,3.487 v 0 c -1.215,0.854 -2.436,1.703 -3.662,2.548 v 0 c -1.838,1.23 -3.264,2.323 -4.27,3.289 v 0 c -1.006,0.965 -1.402,2.085 -1.18,3.363 v 0 c 0.052,0.298 0.155,0.609 0.309,0.933 v 0 c 0.4,0.852 1.198,1.447 2.396,1.779 v 0 c 1.198,0.331 2.552,0.359 4.057,0.079 v 0 c 1.377,-0.257 2.705,-0.741 3.982,-1.451 v 0 c 1.275,-0.71 2.36,-1.613 3.253,-2.703 v 0 c 0.324,1.607 0.647,3.214 0.971,4.821 v 0 c -2.402,1.145 -4.706,1.92 -6.895,2.332 v 0 c -1.542,0.289 -3.014,0.433 -4.411,0.433 v 0 c -0.673,0 -1.33,-0.034 -1.968,-0.1"
         id="path252"
         inkscape:connector-curvature="0" /></clipPath><linearGradient
       x1="0"
       y1="0"
       x2="1"
       y2="0"
       gradientUnits="userSpaceOnUse"
       gradientTransform="matrix(212.37323,0,0,-212.37323,288.9646,509.64365)"
       spreadMethod="pad"
       id="linearGradient268"><stop
         style="stop-opacity:1;stop-color:#e90000"
         offset="0"
         id="stop260" /><stop
         style="stop-opacity:1;stop-color:#e90000"
         offset="0.49"
         id="stop262" /><stop
         style="stop-opacity:1;stop-color:#0e9000"
         offset="0.51"
         id="stop264" /><stop
         style="stop-opacity:1;stop-color:#0e9000"
         offset="1"
         id="stop266" /></linearGradient><clipPath
       clipPathUnits="userSpaceOnUse"
       id="clipPath282"><path
         d="M 0,600 H 800 V 0 H 0 Z"
         id="path280"
         inkscape:connector-curvature="0" /></clipPath><clipPath
       clipPathUnits="userSpaceOnUse"
       id="clipPath294"><path
         d="m 410.175,160.369 c -3.604,-2.703 -12.939,-6.118 -13.88,-9.593 v 0 c 4.65,-0.032 9.564,0.8 14.202,1.795 v 0 c 1.362,0.292 2.781,0.641 3.843,1.4 v 0 c 1.188,0.85 1.728,2.063 2.216,3.211 v 0 c 1.156,2.727 2.309,5.456 3.458,8.185 v 0 c -3.847,-0.266 -6.943,-2.826 -9.839,-4.998"
         id="path292"
         inkscape:connector-curvature="0" /></clipPath><linearGradient
       x1="0"
       y1="0"
       x2="1"
       y2="0"
       gradientUnits="userSpaceOnUse"
       gradientTransform="matrix(23.718182,0,0,-23.718182,396.29544,158.07123)"
       spreadMethod="pad"
       id="linearGradient308"><stop
         style="stop-opacity:1;stop-color:#e90000"
         offset="0"
         id="stop300" /><stop
         style="stop-opacity:1;stop-color:#e90000"
         offset="0.49"
         id="stop302" /><stop
         style="stop-opacity:1;stop-color:#0e9000"
         offset="0.51"
         id="stop304" /><stop
         style="stop-opacity:1;stop-color:#0e9000"
         offset="1"
         id="stop306" /></linearGradient><clipPath
       clipPathUnits="userSpaceOnUse"
       id="clipPath318"><path
         d="m 256.172,465.764 c 0.601,-9.313 14.004,-14.609 21.405,-18.394 v 0 c 20.091,-10.273 46.732,-29.33 62.845,-45.826 v 0 c 0.006,-0.005 0.013,-0.008 0.018,-0.013 v 0 c -5.035,-4.306 -8.909,-9.873 -10.657,-16.378 v 0 c -2.504,-9.319 -0.723,-19.533 3.968,-27.87 v 0 c 1.485,-2.64 3.246,-5.053 5.229,-7.244 v 0 c -4.617,-4.21 -3.893,-13.208 0.637,-17.556 v 0 c -0.474,0.106 -0.951,0.195 -1.422,0.306 v 0 c -1.521,0.357 -3.097,0.778 -4.271,1.809 v 0 c -2.164,1.9 -2.107,5.767 0.114,7.603 v 0 c 0.538,0.445 1.284,0.82 1.575,1.458 v 0 c 0.119,0.141 0.226,0.297 0.301,0.487 v 0 c -3.904,1.88 -13.062,-3.348 -16.396,-5.426 v 0 c -2.749,-1.712 -5.562,-4.347 -5.231,-7.569 v 0 c 0.228,-2.214 1.977,-4.041 3.996,-4.975 v 0 c 2.021,-0.934 4.294,-1.131 6.515,-1.278 v 0 c 0.675,-0.044 1.351,-0.074 2.027,-0.112 v 0 c 15.597,-9.305 11.786,-23.645 -0.911,-33.395 v 0 c -44.886,-34.468 -29.864,-70.054 0,-85.961 v 0 c 14.615,-7.785 35.781,-12.095 57.918,-13.135 v 0 c 1.007,-2.398 2.425,-4.767 4.72,-5.964 v 0 c 0.99,-0.516 2.089,-0.785 3.194,-0.942 v 0 c 0.259,-0.037 0.519,-0.067 0.78,-0.092 v 0 l 0.828,-11.394 c -7.237,0.134 -14.379,-0.051 -20.846,-0.915 v 0 c -13.36,-1.786 -26.908,-3.814 -39.162,-9.427 v 0 c -6.326,-2.898 -13.024,-8.274 -12.188,-15.182 v 0 c 0.836,-6.913 8.542,-10.494 15.226,-12.445 v 0 c 36.77,-10.733 76.508,-11.098 113.469,-1.041 v 0 c 5.22,1.42 11.698,3.017 15.75,6.673 v 0 c -4.657,1.601 -15.768,-4.375 -21.039,-5.566 v 0 c -7.392,-1.669 -14.922,-2.678 -22.473,-3.266 v 0 c -15.286,-1.189 -30.652,-0.586 -45.94,0.261 v 0 c -13.932,0.772 -28.353,1.843 -40.63,8.476 v 0 c -5.31,2.869 -10.654,8.692 -8.224,14.217 v 0 c 1.648,3.75 6.085,5.252 10.051,6.272 v 0 c 17.647,4.544 35.688,7.555 53.853,9 v 0 c -3.493,-4.518 -8.252,-5.852 -12.387,-9.025 v 0 c 4.194,-1.45 9.639,2.807 13.535,4.507 v 0 c 0.714,0.313 1.446,0.636 2.224,0.677 v 0 c 0.939,0.051 1.845,-0.312 2.73,-0.63 v 0 c 4.939,-1.772 9.548,-4.773 14.735,-3.977 v 0 c -4.212,2.199 -8.51,4.462 -11.763,7.926 v 0 c -0.32,0.341 -0.654,0.701 -1.003,1.056 v 0 c 3.321,0.178 6.645,0.311 9.97,0.384 v 0 c 11.366,0.252 26.675,-3.593 36.641,-9.064 v 0 c 0.715,-0.393 1.443,-0.834 1.889,-1.517 v 0 c 0.629,-0.958 0.583,-2.203 0.402,-3.334 v 0 c -0.91,-5.697 -4.856,-10.818 -10.132,-13.15 v 0 c -3.448,-1.524 -11.798,-1.062 -15.56,-1.314 v 0 c -27.367,-1.835 -52.509,-3.124 -64.06,1.7 v 0 c 6.236,-5.102 15.575,-7.004 22.523,-7.324 v 0 c 18.056,-0.834 38.265,0.189 56.024,2.022 v 0 c 5.687,0.587 11.466,1.252 16.716,3.517 v 0 c 5.248,2.264 9.982,6.396 11.6,11.879 v 0 c 0.352,1.198 0.533,2.565 -0.115,3.633 v 0 c -0.42,0.694 -1.128,1.155 -1.819,1.579 v 0 c -12.744,7.823 -27.789,11.291 -42.721,12.082 v 0 c -7.521,0.397 -15.914,0.999 -24.285,1.244 v 0 l 0.807,11.814 c 0.306,0.083 0.61,0.174 0.908,0.285 v 0 c 1.157,0.429 2.242,1.083 3.138,1.933 v 0 c 0.803,0.763 1.144,1.759 1.821,2.563 v 0 c -1.632,-1.941 -4.315,-2.637 -6.845,-2.826 v 0 c -0.768,-0.057 -1.562,-0.075 -2.284,0.193 v 0 c -0.681,0.252 -1.246,0.738 -1.78,1.231 v 0 c -0.652,0.602 -1.281,1.23 -1.886,1.88 v 0 c -0.322,0.345 -0.642,0.764 -0.807,1.199 v 0 c 28.141,-0.623 57.086,3.952 75.572,13.327 v 0 c 30.25,15.34 44.886,51.493 0,85.961 v 0 c -12.942,9.938 -16.667,24.648 0,33.932 v 0 l -1.038,-0.039 c 3.126,0.877 6.015,1.946 8.27,3.036 v 0 c 4.161,2.011 8.051,6.052 5.876,9.563 v 0 c -0.688,1.11 -1.892,1.951 -3.154,2.653 v 0 c -4.569,2.541 -10.088,3.578 -15.56,4.413 v 0 c 3.176,6.686 4.505,14.263 2.034,21.441 v 0 c -0.35,1.013 -1.99,0.306 -1.652,-0.675 v 0 c 2.886,-8.384 0.842,-17.229 -4.154,-24.553 v 0 c -0.716,-1.048 0.969,-0.96 1.509,-0.17 v 0 c 0.67,0.985 1.272,1.998 1.811,3.034 v 0 c 2.066,-1.333 4.914,-1.904 7.521,-2.535 v 0 c 3.291,-0.798 6.915,-2.276 7.603,-5.006 v 0 c 0.471,-1.867 -0.642,-3.785 -2.181,-5.224 v 0 c -3.324,-3.109 -8.445,-4.529 -13.432,-5.286 v 0 c -4.504,-0.683 -9.11,-0.934 -13.496,-2.041 v 0 c 3.556,-0.983 8.21,-0.816 12.864,-0.03 v 0 c -13.136,-8.918 -9.497,-22.178 1.935,-31.271 v 0 c 41.499,-33.005 27.968,-67.623 0,-82.313 v 0 c -31.744,-16.672 -96.853,-17.502 -128.578,0 v 0 c -27.611,15.233 -41.499,49.308 0,82.313 v 0 c 11.707,9.312 15.245,22.994 0.959,31.907 v 0 c 3.576,-0.13 7.153,-0.211 10.731,-0.283 v 0 c 6.832,-0.14 13.663,-0.28 20.495,-0.419 v 0 c 11.367,-0.232 36.808,-2.189 47.854,0.5 v 0 c -23.307,-2.35 -60.716,2.072 -84.141,2.296 v 0 c -2.059,0.02 -4.167,0.029 -6.102,0.734 v 0 c -1.935,0.704 -3.697,2.261 -4.038,4.292 v 0 c -0.34,2.022 0.807,4.063 2.399,5.356 v 0 c 1.593,1.292 3.577,1.981 5.517,2.645 v 0 c 3.078,1.053 6.156,2.107 9.237,3.162 v 0 c -1.229,-0.781 -2.461,-1.695 -3.441,-2.628 v 0 c -1.534,-1.458 -2.571,-3.801 -1.629,-5.696 v 0 c 0.803,-1.615 2.703,-2.312 4.445,-2.782 v 0 c 7.908,-2.137 16.156,-2.621 24.337,-3.041 v 0 c 10.778,-0.554 35.614,-2.746 46.189,-0.594 v 0 c -0.049,0.051 -0.105,0.089 -0.158,0.133 v 0 c 4.648,-1.217 9.389,-1.813 13.739,-1.916 v 0 c 15.184,-0.36 31.074,6.017 38.444,21.184 v 0 c 3.613,7.438 4.754,16.419 1.855,24.361 v 0 c -2.925,8.011 -9.142,14.212 -15.901,18.51 v 0 c -0.763,0.485 -1.54,0.942 -2.325,1.381 v 0 c 0.39,0.075 0.763,0.191 0.906,0.324 v 0 c 7.629,7.099 10.405,18.373 7.225,28.291 v 0 c -2.224,6.938 -7.425,12.207 -13.746,15.452 v 0 c 4.523,1.598 7.977,6.07 7.19,11.075 v 0 c -0.816,5.192 -4.548,5.022 -8.372,4.851 v 0 c -1.662,-0.075 -3.342,-0.149 -4.806,0.218 v 0 c 0.019,0.037 0.03,0.074 0.02,0.11 v 0 c -1.236,4.625 -2.526,9.098 -0.097,13.408 v 0 c 1.439,2.554 4.752,5.16 7.557,6.038 v 0 c 5.342,1.67 11.408,1.595 8.772,-3.675 v 0 c -0.119,-0.24 2.072,-0.018 2.088,0.56 v 0 c 0.215,7.555 -10.107,4.54 -13.895,2.486 v 0 c -6.627,-3.592 -8.23,-10.684 -6.924,-17.538 v 0 c -0.728,0.673 -1.367,1.441 -2.274,2.021 v 0 c -1.089,0.697 -2.337,0.932 -3.611,1.039 v 0 c -2.354,0.195 -5.044,0.126 -7.124,-1.11 v 0 c -5.445,-3.234 -4.448,-10.955 -0.61,-14.967 v 0 c 0.577,-0.603 2.564,0.2 1.925,0.868 v 0 c -3.183,3.328 -5.152,11.776 0.894,13.659 v 0 c 3.46,1.078 6.463,-0.247 8.883,-2.578 v 0 c 0.854,-0.821 1.799,-1.36 2.959,-1.631 v 0 c 1.375,-0.321 2.9,-0.157 4.427,0.007 v 0 c 2.1,0.226 4.205,0.453 5.927,-0.584 v 0 c 5.49,-3.309 0.708,-11.844 -3.755,-13.19 v 0 c -0.285,-0.085 -0.477,-0.218 -0.608,-0.365 v 0 c -3.119,1.415 -6.466,2.354 -9.839,2.769 v 0 c -9.285,1.142 -19.149,-1.207 -26.859,-6.527 v 0 c -6.479,-4.469 -13.664,-13.873 -11.098,-21.684 v 0 c -11.25,1.915 -22.686,1.725 -33.224,-2.741 v 0 c 0.029,0.16 0.002,0.327 -0.115,0.494 v 0 c -12.274,17.44 -38.794,40.728 -56.371,52.853 v 0 c -7.304,5.04 -16.744,10.896 -25.932,11.206 v 0 c -2.48,0.084 -5.438,-0.479 -6.891,-2.716 v 0 c -1.391,-2.142 -0.834,-5.05 1.587,-6 v 0 c 0.925,-0.363 3.102,1.007 1.887,1.484 v 0 c -1.35,0.562 -1.902,1.533 -1.658,2.91 v 0 c 1.837,2.33 3.997,3.084 6.481,2.264 v 0 c 1.891,-0.348 3.768,-0.912 5.584,-1.537 v 0 c 4.041,-1.389 7.874,-3.332 11.535,-5.522 v 0 c 6.716,-4.015 24.299,-16.681 30.25,-21.741 v 0 c 11.857,-10.081 22.317,-21.674 31.27,-34.396 v 0 c 0.076,-0.107 0.179,-0.184 0.301,-0.234 v 0 c -1.29,-0.625 -2.566,-1.311 -3.825,-2.076 v 0 c -1.167,-0.708 -2.293,-1.481 -3.38,-2.302 v 0 c -12.682,10.786 -27.579,23.253 -42.302,33.235 v 0 c -7.067,4.791 -22.667,12.987 -30.478,17.525 v 0 c -3.642,2.117 -7.76,4.268 -9.564,8.131 v 0 c -0.972,2.081 -1.718,4.626 -1.115,6.911 v 0 c 1.24,4.701 7.009,4.945 11.031,4.639 v 0 c 0.787,-0.061 2.888,1.323 1.473,1.431 v 0 c -0.804,0.062 -1.657,0.099 -2.532,0.099 v 0 c -6.032,0 -13.109,-1.749 -12.628,-9.215 m 150.136,-60.536 c -6.058,2.143 -12.413,4.063 -18.858,5.347 v 0 c -3.41,7.496 3.155,17.008 9.414,21.645 v 0 c 9.142,6.773 21.65,8.362 32.215,4.161 v 0 c 8.775,-3.488 15.619,-10.657 17.304,-20.084 v 0 c 1.561,-8.737 -1.129,-17.947 -7.533,-24.128 v 0 c -11.101,5.954 -24.144,7.399 -36.017,3.857 v 0 c -6.709,4.582 -14.98,6.999 -23.308,6.239 v 0 c -0.963,-0.088 -1.724,-1.175 -0.302,-1.044 v 0 c 7.66,0.698 15.331,-1.562 21.647,-5.824 v 0 c -3.101,-1.083 -6.108,-2.515 -8.964,-4.306 v 0 c -1.176,-0.738 0.664,-0.763 1.21,-0.421 v 0 c 2.763,1.734 5.67,3.088 8.663,4.09 v 0 c 6.879,-4.958 11.999,-12.336 13.456,-20.838 v 0 c 2.872,-16.75 -8.196,-33.816 -24.533,-37.92 v 0 c -1.942,1.497 -3.734,3.18 -5.292,5.107 v 0 c -4.838,5.981 -7.234,14.92 -4.715,22.585 v 0 c 3.174,9.656 12.899,12.943 21.537,13.498 v 0 c 0.618,0.039 2.203,1.103 0.853,1.017 v 0 c -6.706,-0.43 -13.843,-2.068 -19.13,-6.827 v 0 c -5.727,-5.155 -7.433,-13.255 -5.53,-20.867 v 0 c 1.609,-6.437 5.248,-11.343 9.943,-15.005 v 0 c -16.23,-2.85 -35.105,2.362 -46.682,14.427 v 0 c 0.238,0.14 0.487,0.27 0.753,0.381 v 0 c 1.61,0.666 0.166,1.756 -1.054,1.251 v 0 c -0.29,-0.121 -0.549,-0.275 -0.815,-0.421 v 0 c -0.571,0.645 -1.128,1.301 -1.657,1.981 v 0 c -10.686,13.743 -11.449,34.368 1.643,46.813 v 0 c 12.38,11.768 28.925,12.717 44.808,9.712 v 0 c 0.715,-1.433 1.795,-2.796 3.322,-4.043 v 0 c 0.445,-0.363 2.378,0.518 2.108,0.739 v 0 c -1.037,0.847 -1.852,1.757 -2.492,2.707 v 0 c 5.654,-1.243 11.185,-2.937 16.37,-4.773 v 0 c 0.059,-0.021 0.132,-0.03 0.215,-0.03 v 0 c 0.715,0 2.13,0.723 1.421,0.974 m -14.676,-69.947 c 6.038,1.624 11.576,4.618 16.049,9.278 v 0 c 6.036,6.289 9.758,14.845 10.024,23.576 v 0 c 0.343,11.217 -5.417,21.018 -13.94,27.235 v 0 c 10.75,2.998 22.434,1.53 32.574,-3.681 v 0 c 12.376,-6.36 23.24,-18.997 20.749,-34.755 v 0 c -2.6,-16.449 -15.944,-27.133 -30.709,-29.197 v 0 c -2.329,-0.326 -4.771,-0.495 -7.266,-0.495 v 0 c -9.451,0 -19.671,2.433 -27.481,8.039 m -36.574,-5.115 c -3.17,0.248 -6.327,0.645 -9.464,1.162 v 0 c 0.023,0.196 -0.114,0.369 -0.512,0.464 v 0 c -5.908,1.423 -8.983,12.262 -4.866,16.94 v 0 c 10.984,-11.136 27.967,-16.01 43.372,-14.816 v 0 c 1.964,0.153 3.902,0.432 5.8,0.831 v 0 c 3.697,-2.661 7.969,-4.606 12.396,-5.955 v 0 c -0.242,0.003 -0.485,-0.004 -0.72,-0.015 v 0 c -1.895,-0.086 -4.229,-0.125 -6.845,-0.125 v 0 c -12.144,0 -30.382,0.827 -39.161,1.514"
         id="path316"
         inkscape:connector-curvature="0" /></clipPath><linearGradient
       x1="0"
       y1="0"
       x2="1"
       y2="0"
       gradientUnits="userSpaceOnUse"
       gradientTransform="matrix(237.27829,0,0,-237.27829,256.14902,301.29358)"
       spreadMethod="pad"
       id="linearGradient332"><stop
         style="stop-opacity:1;stop-color:#e90000"
         offset="0"
         id="stop324" /><stop
         style="stop-opacity:1;stop-color:#e90000"
         offset="0.49"
         id="stop326" /><stop
         style="stop-opacity:1;stop-color:#0e9000"
         offset="0.51"
         id="stop328" /><stop
         style="stop-opacity:1;stop-color:#0e9000"
         offset="1"
         id="stop330" /></linearGradient></defs><sodipodi:namedview
     pagecolor="#ffffff"
     bordercolor="#666666"
     borderopacity="1"
     objecttolerance="10"
     gridtolerance="10"
     guidetolerance="10"
     inkscape:pageopacity="0"
     inkscape:pageshadow="2"
     inkscape:window-width="1920"
     inkscape:window-height="1023"
     id="namedview4"
     showgrid="false"
     inkscape:zoom="0.69505006"
     inkscape:cx="374.94969"
     inkscape:cy="295.76364"
     inkscape:window-x="1366"
     inkscape:window-y="25"
     inkscape:window-maximized="1"
     inkscape:current-layer="g10" /><g
     id="g10"
     inkscape:groupmode="layer"
     inkscape:label="Milk &amp; Fruit"
     transform="matrix(1.3333333,0,0,-1.3333333,0,800)"><g
   id="g12"><g
     id="g14"
     clip-path="url(#clipPath18)"><g
       id="g20"><g
         id="g22"><path
           d="m 9.613,301.294 c 0,-134.486 173.033,-243.508 386.48,-243.508 v 0 c 213.446,0 386.479,109.022 386.479,243.508 v 0 c 0,134.485 -173.033,243.507 -386.479,243.507 v 0 C 182.646,544.801 9.613,435.779 9.613,301.294"
           style="fill:url(#linearGradient32);stroke:none"
           id="path34"
           inkscape:connector-curvature="0" /></g></g></g></g><g
   id="g36"><g
     id="g38"
     clip-path="url(#clipPath42)"><g
       id="g44"
       transform="translate(731.291,301.2936)"><path
         d="m 0,0 c 0,-130.206 -150.074,-235.76 -335.199,-235.76 -185.125,0 -335.198,105.554 -335.198,235.76 0,130.206 150.073,235.76 335.198,235.76 C -150.074,235.76 0,130.206 0,0"
         style="fill:#ffffff;fill-opacity:1;fill-rule:nonzero;stroke:none"
         id="path46"
         inkscape:connector-curvature="0" /></g><g
       id="g48"
       transform="translate(289.0715,511.4093)"><path
         d="m 0,0 c -0.289,1.684 0.008,3.203 0.902,4.552 0.894,1.35 2.224,2.475 3.988,3.367 1.764,0.891 3.794,1.548 6.081,1.962 2.191,0.397 4.618,0.492 7.267,0.278 0.27,-1.617 0.54,-3.234 0.81,-4.851 -1.22,0.701 -2.555,1.159 -3.999,1.367 C 13.606,6.885 12.192,6.863 10.814,6.612 9.309,6.337 8.054,5.829 7.052,5.092 6.05,4.355 5.516,3.515 5.446,2.576 5.417,2.219 5.432,1.891 5.49,1.594 5.737,0.321 6.507,-0.584 7.792,-1.127 c 1.285,-0.544 3.008,-1.056 5.163,-1.551 1.446,-0.353 2.888,-0.711 4.326,-1.076 1.634,-0.382 3.157,-1.046 4.567,-1.989 1.411,-0.943 2.245,-2.251 2.513,-3.915 0.168,-1.769 -0.21,-3.423 -1.121,-4.965 -0.912,-1.542 -2.271,-2.848 -4.078,-3.928 -1.808,-1.081 -3.919,-1.844 -6.343,-2.3 -2.29,-0.432 -4.916,-0.521 -7.898,-0.285 -0.792,1.75 -1.588,3.499 -2.389,5.247 1.689,-0.858 3.428,-1.409 5.225,-1.657 1.796,-0.248 3.527,-0.245 5.2,0.009 1.778,0.405 3.331,1.093 4.669,2.068 1.336,0.976 1.882,2.205 1.625,3.697 -0.348,2.022 -2.207,3.431 -5.607,4.177 C 11.69,-7.156 9.729,-6.728 7.76,-6.312 6.671,-6.067 5.598,-5.705 4.54,-5.225 3.482,-4.744 2.526,-4.068 1.672,-3.194 0.818,-2.32 0.258,-1.256 0,0"
         style="fill:#000000;fill-opacity:1;fill-rule:nonzero;stroke:none"
         id="path50"
         inkscape:connector-curvature="0" /></g><g
       id="g52"
       transform="translate(320.6126,509.0313)"><path
         d="m 0,0 c 0.405,-2.133 1.311,-4.018 2.7,-5.662 1.39,-1.645 3.102,-2.863 5.137,-3.665 2.035,-0.803 4.178,-1.065 6.447,-0.793 1.89,0.343 3.506,0.935 4.854,1.783 1.349,0.848 2.422,1.868 3.219,3.066 0.796,1.197 1.346,2.475 1.645,3.833 0.3,1.358 0.382,2.747 0.243,4.167 -0.032,0.323 -0.11,0.805 -0.236,1.444 -0.417,1.921 -1.232,3.675 -2.455,5.256 -1.223,1.582 -2.796,2.783 -4.718,3.594 -1.922,0.81 -4.083,1.074 -6.468,0.783 C 8.026,13.433 5.998,12.638 4.296,11.432 2.594,10.226 1.36,8.642 0.594,6.692 -0.173,4.741 -0.365,2.51 0,0 m -5.415,-0.991 c -0.335,2.296 -0.193,4.468 0.443,6.516 0.634,2.047 1.664,3.871 3.095,5.463 1.429,1.592 3.164,2.907 5.199,3.935 2.035,1.027 4.259,1.712 6.66,2.049 2.462,0.3 4.83,0.229 7.088,-0.21 2.258,-0.44 4.28,-1.227 6.062,-2.352 1.781,-1.126 3.23,-2.555 4.347,-4.281 1.117,-1.727 1.812,-3.69 2.099,-5.885 0.239,-2.743 -0.237,-5.369 -1.398,-7.885 -1.161,-2.515 -2.928,-4.63 -5.295,-6.362 -2.369,-1.733 -5.158,-2.841 -8.397,-3.347 -3.487,-0.42 -6.66,-0.129 -9.555,0.891 -2.893,1.019 -5.245,2.529 -7.052,4.555 -1.807,2.025 -2.937,4.262 -3.362,6.727 0.033,0.042 0.052,0.079 0.059,0.113 0.007,0.034 0.009,0.058 0.007,0.073"
         style="fill:#000000;fill-opacity:1;fill-rule:nonzero;stroke:none"
         id="path54"
         inkscape:connector-curvature="0" /></g><g
       id="g56"
       transform="translate(356.0247,504.7426)"><path
         d="m 0,0 c -0.437,5.647 -0.874,11.294 -1.311,16.942 -0.096,1.242 -0.203,2.192 -0.322,2.847 -0.12,0.656 -0.359,1.221 -0.718,1.695 -0.361,0.474 -0.899,0.802 -1.618,0.982 0.028,0.06 0.055,0.12 0.083,0.18 3.848,0.313 7.7,0.585 11.553,0.815 3.468,0.206 6.098,-0.409 7.867,-1.807 1.77,-1.4 2.691,-3.254 2.783,-5.551 -0.122,-1.527 -0.791,-2.945 -1.996,-4.26 -1.204,-1.316 -2.98,-2.369 -5.324,-3.176 2.609,-2.682 5.179,-5.384 7.709,-8.104 0.55,-0.627 1.443,-1.418 2.671,-2.38 1.229,-0.963 2.792,-1.987 4.682,-3.083 -1.593,-0.042 -3.186,-0.092 -4.778,-0.149 -1.211,-0.044 -2.224,0.138 -3.039,0.551 -0.816,0.413 -1.576,1.029 -2.281,1.847 C 14.03,-0.616 12.078,1.408 10.102,3.421 8.528,5.388 6.936,7.347 5.327,9.3 c 1.349,0.276 2.65,0.716 3.909,1.32 1.259,0.603 2.278,1.39 3.056,2.365 0.778,0.975 1.139,2.116 1.074,3.426 -0.214,1.605 -0.949,2.742 -2.209,3.404 -1.26,0.661 -2.781,0.941 -4.555,0.831 C 5.715,20.591 4.676,20.405 3.485,20.086 3.934,13.475 4.383,6.864 4.832,0.253 4.926,-1.134 5.045,-2.184 5.19,-2.897 5.334,-3.609 5.562,-4.179 5.874,-4.606 6.185,-5.033 6.66,-5.384 7.296,-5.661 7.298,-5.69 7.3,-5.719 7.302,-5.748 4.359,-5.935 1.416,-6.149 -1.524,-6.388 c -0.005,0.057 -0.009,0.115 -0.014,0.172 0.877,0.411 1.39,1.067 1.538,1.972 C 0.149,-3.34 0.149,-1.925 0,0"
         style="fill:#000000;fill-opacity:1;fill-rule:nonzero;stroke:none"
         id="path58"
         inkscape:connector-curvature="0" /></g><g
       id="g60"
       transform="translate(392.0544,499.5672)"><path
         d="m 0,0 c -1.352,0.798 -2.295,1.5 -2.822,2.113 -0.527,0.613 -1.077,1.618 -1.652,3.014 -2.681,6.542 -5.462,13.062 -8.341,19.56 -0.508,1.174 -0.974,2.069 -1.396,2.686 -0.422,0.616 -1.044,1.178 -1.868,1.681 -0.002,0.058 -0.004,0.115 -0.006,0.173 2.426,0.089 4.853,0.161 7.28,0.217 0.006,-0.238 -0.026,-0.429 -0.095,-0.575 0.146,-0.739 0.45,-1.723 0.909,-2.953 C -5.093,19.175 -2.3,12.41 0.388,5.624 2.793,11.63 5.285,17.62 7.861,23.591 c 0.568,1.249 0.859,2.352 0.868,3.311 0.014,1.34 -0.556,2.175 -1.714,2.5 0.001,0.057 0.001,0.115 0.001,0.173 2.46,-0.016 4.92,-0.049 7.379,-0.099 C 9.834,19.427 5.519,9.321 1.452,-0.835 0.969,-0.556 0.485,-0.278 0,0"
         style="fill:#000000;fill-opacity:1;fill-rule:nonzero;stroke:none"
         id="path62"
         inkscape:connector-curvature="0" /></g><g
       id="g64"
       transform="translate(410.0962,504.2484)"><path
         d="m 0,0 c 0.184,6.476 0.368,12.951 0.552,19.427 0.04,1.398 -0.052,2.53 -0.277,3.398 -0.225,0.867 -0.824,1.481 -1.798,1.836 10e-4,0.029 10e-4,0.058 0.002,0.086 5.279,-0.128 10.557,-0.334 15.831,-0.618 0.33,-0.018 0.59,-0.061 0.78,-0.129 0.754,0.067 1.272,0.155 1.553,0.269 0.036,-0.002 0.072,-0.004 0.108,-0.006 -0.101,-1.723 -0.201,-3.446 -0.302,-5.169 -0.036,0.002 -0.071,0.004 -0.107,0.006 -0.647,0.702 -1.419,1.199 -2.313,1.488 -0.895,0.29 -2.102,0.474 -3.623,0.545 C 9.518,21.175 8.792,21.199 8.227,21.209 7.663,21.219 7.232,21.216 6.934,21.203 6.638,21.19 6.376,21.169 6.151,21.142 5.926,21.115 5.732,21.093 5.572,21.078 5.468,18.32 5.364,15.562 5.26,12.804 c 1.516,-0.057 3.031,-0.121 4.546,-0.191 0.52,-0.024 0.904,-0.072 1.154,-0.142 1.114,0.047 1.849,0.138 2.204,0.278 0.047,-0.002 0.095,-0.005 0.142,-0.007 C 13.222,11.165 13.138,9.589 13.055,8.013 13.008,8.016 12.961,8.018 12.914,8.021 12.389,8.907 11.065,9.407 8.944,9.503 7.677,9.56 6.409,9.613 5.141,9.661 L 4.743,-0.871 c 1.208,-0.146 2.426,-0.301 3.655,-0.465 1.229,-0.163 2.152,-0.281 2.77,-0.348 0.375,-0.019 0.688,-0.064 0.937,-0.135 2.747,-0.021 5.243,0.729 7.517,2.26 0.031,-0.002 0.061,-0.004 0.092,-0.006 -0.837,-1.883 -1.666,-3.769 -2.487,-5.656 -6.48,0.407 -12.966,0.689 -19.455,0.847 0.002,0.057 0.003,0.115 0.005,0.172 C -0.811,-3.753 -0.068,-2.356 0,0"
         style="fill:#000000;fill-opacity:1;fill-rule:nonzero;stroke:none"
         id="path66"
         inkscape:connector-curvature="0" /></g><g
       id="g68"
       transform="translate(438.6584,502.5383)"><path
         d="m 0,0 c 0.607,7.177 1.214,14.354 1.822,21.531 -1.372,0.116 -2.745,0.226 -4.117,0.332 -2.747,0.21 -4.8,-0.226 -6.147,-1.286 -0.068,0.004 -0.136,0.009 -0.204,0.013 0.688,1.714 1.381,3.426 2.08,5.137 0.065,-0.004 0.129,-0.009 0.193,-0.013 0.419,-0.267 1.154,-0.437 2.207,-0.514 6.303,-0.459 12.599,-1.03 18.887,-1.712 1.282,-0.139 2.149,-0.117 2.602,0.071 0.068,-0.008 0.136,-0.016 0.204,-0.024 -0.708,-1.685 -1.41,-3.372 -2.108,-5.06 -0.068,0.007 -0.135,0.015 -0.203,0.022 -0.188,0.696 -0.615,1.199 -1.278,1.51 -0.665,0.311 -1.546,0.524 -2.647,0.637 C 9.788,20.798 8.283,20.946 6.779,21.088 6.11,13.978 5.442,6.868 4.773,-0.242 4.688,-1.153 4.765,-1.974 5.003,-2.707 5.241,-3.439 5.854,-4.137 6.838,-4.807 6.832,-4.864 6.827,-4.921 6.821,-4.979 3.725,-4.672 0.626,-4.394 -2.474,-4.145 -2.47,-4.088 -2.465,-4.03 -2.46,-3.973 -1.02,-3.648 -0.198,-2.327 0,0"
         style="fill:#000000;fill-opacity:1;fill-rule:nonzero;stroke:none"
         id="path70"
         inkscape:connector-curvature="0" /></g><g
       id="g72"
       transform="translate(456.2994,500.8347)"><path
         d="m 0,0 c 0.77,6.432 1.539,12.865 2.309,19.297 0.166,1.388 0.178,2.525 0.031,3.409 -0.145,0.885 -0.688,1.55 -1.627,1.992 0.003,0.029 0.007,0.057 0.01,0.086 5.254,-0.607 10.501,-1.291 15.74,-2.054 0.327,-0.048 0.583,-0.114 0.767,-0.2 0.758,-0.002 1.283,0.04 1.574,0.127 0.036,-0.005 0.072,-0.01 0.107,-0.016 -0.256,-1.707 -0.512,-3.413 -0.769,-5.12 -0.035,0.005 -0.071,0.011 -0.106,0.016 -0.583,0.758 -1.308,1.322 -2.174,1.692 -0.867,0.37 -2.056,0.663 -3.566,0.872 -0.883,0.122 -1.605,0.213 -2.168,0.274 C 9.566,20.436 9.136,20.472 8.837,20.487 8.54,20.5 8.277,20.504 8.051,20.497 7.823,20.49 7.628,20.486 7.467,20.486 7.113,17.748 6.76,15.011 6.406,12.274 c 1.507,-0.195 3.014,-0.396 4.52,-0.604 0.516,-0.071 0.895,-0.153 1.138,-0.245 1.116,-0.055 1.858,-0.032 2.225,0.076 0.047,-0.007 0.094,-0.014 0.141,-0.021 -0.226,-1.561 -0.453,-3.123 -0.679,-4.685 -0.046,0.006 -0.093,0.013 -0.139,0.02 -0.444,0.93 -1.72,1.549 -3.828,1.837 -1.26,0.172 -2.52,0.34 -3.781,0.502 -0.45,-3.484 -0.9,-6.968 -1.35,-10.452 1.191,-0.256 2.394,-0.52 3.605,-0.795 1.211,-0.274 2.121,-0.476 2.733,-0.599 0.372,-0.053 0.681,-0.126 0.923,-0.219 2.74,-0.271 5.299,0.249 7.708,1.567 0.03,-0.005 0.06,-0.01 0.091,-0.015 C 18.707,-3.158 17.709,-4.96 16.718,-6.765 10.286,-5.77 3.84,-4.9 -2.618,-4.154 c 0.007,0.057 0.013,0.114 0.02,0.171 C -1.149,-3.664 -0.281,-2.34 0,0"
         style="fill:#000000;fill-opacity:1;fill-rule:nonzero;stroke:none"
         id="path74"
         inkscape:connector-curvature="0" /></g><g
       id="g76"
       transform="translate(480.6813,515.3544)"><path
         d="m 0,0 c 0.33,1.676 1.147,2.99 2.462,3.932 1.314,0.943 2.956,1.521 4.921,1.725 1.964,0.205 4.094,0.095 6.379,-0.333 2.189,-0.41 4.492,-1.186 6.895,-2.332 -0.324,-1.607 -0.648,-3.214 -0.972,-4.821 -0.893,1.091 -1.977,1.994 -3.253,2.704 -1.276,0.71 -2.605,1.194 -3.982,1.45 C 10.945,2.605 9.591,2.577 8.394,2.246 7.196,1.914 6.397,1.32 5.997,0.468 5.843,0.144 5.741,-0.168 5.689,-0.466 c -0.222,-1.278 0.173,-2.397 1.18,-3.362 1.006,-0.966 2.432,-2.059 4.27,-3.289 1.226,-0.845 2.446,-1.695 3.662,-2.548 1.391,-0.94 2.58,-2.103 3.564,-3.487 0.982,-1.385 1.297,-2.904 0.955,-4.555 -0.474,-1.712 -1.418,-3.122 -2.821,-4.238 -1.403,-1.116 -3.141,-1.851 -5.216,-2.216 -2.075,-0.365 -4.319,-0.325 -6.747,0.112 -2.293,0.413 -4.776,1.265 -7.473,2.547 -0.115,1.918 -0.235,3.836 -0.36,5.754 1.27,-1.403 2.696,-2.538 4.284,-3.409 1.588,-0.871 3.206,-1.486 4.858,-1.845 1.806,-0.255 3.503,-0.166 5.101,0.269 1.597,0.435 2.546,1.389 2.838,2.874 0.396,2.014 -0.841,3.993 -3.753,5.901 -1.67,1.107 -3.35,2.206 -5.039,3.296 C 4.062,-8.045 3.19,-7.324 2.375,-6.499 1.558,-5.673 0.907,-4.701 0.422,-3.58 -0.064,-2.459 -0.207,-1.266 0,0"
         style="fill:#000000;fill-opacity:1;fill-rule:nonzero;stroke:none"
         id="path78"
         inkscape:connector-curvature="0" /></g></g></g><g
   id="g80"><g
     id="g82"
     clip-path="url(#clipPath86)"><g
       id="g88"><g
         id="g90"><path
           d="m 300.042,521.29 c -2.287,-0.414 -4.316,-1.071 -6.08,-1.962 v 0 c -1.764,-0.891 -3.094,-2.017 -3.988,-3.366 v 0 c -0.894,-1.35 -1.192,-2.869 -0.902,-4.552 v 0 c 0.258,-1.258 0.817,-2.32 1.671,-3.194 v 0 c 0.855,-0.874 1.811,-1.551 2.868,-2.032 v 0 c 1.059,-0.479 2.132,-0.842 3.221,-1.087 v 0 c 1.968,-0.416 3.929,-0.844 5.884,-1.283 v 0 c 3.4,-0.745 5.259,-2.155 5.607,-4.176 v 0 c 0.256,-1.492 -0.289,-2.722 -1.626,-3.698 v 0 c -1.337,-0.975 -2.891,-1.663 -4.668,-2.068 v 0 c -1.674,-0.254 -3.405,-0.256 -5.201,-0.009 v 0 c -1.796,0.248 -3.536,0.8 -5.224,1.657 v 0 c 0.801,-1.748 1.597,-3.496 2.389,-5.247 v 0 c 2.982,-0.236 5.608,-0.147 7.898,0.285 v 0 c 2.424,0.457 4.535,1.219 6.342,2.3 v 0 c 1.807,1.08 3.167,2.386 4.079,3.928 v 0 c 0.911,1.542 1.288,3.196 1.121,4.965 v 0 c -0.269,1.664 -1.102,2.972 -2.514,3.916 v 0 c -1.409,0.942 -2.933,1.606 -4.566,1.988 v 0 c -1.438,0.365 -2.88,0.724 -4.327,1.076 v 0 c -2.155,0.495 -3.878,1.007 -5.163,1.551 v 0 c -1.284,0.543 -2.054,1.448 -2.302,2.722 v 0 c -0.058,0.297 -0.072,0.624 -0.044,0.981 v 0 c 0.07,0.939 0.605,1.779 1.606,2.516 v 0 c 1.003,0.737 2.258,1.246 3.762,1.52 v 0 c 1.378,0.251 2.792,0.273 4.236,0.064 v 0 c 1.443,-0.209 2.778,-0.666 3.999,-1.368 v 0 c -0.271,1.617 -0.541,3.234 -0.811,4.851 v 0 c -0.92,0.074 -1.814,0.111 -2.68,0.111 v 0 c -1.627,0 -3.157,-0.13 -4.587,-0.389"
           style="fill:url(#linearGradient100);stroke:none"
           id="path102"
           inkscape:connector-curvature="0" /></g></g></g></g><g
   id="g104"><g
     id="g106"
     clip-path="url(#clipPath110)"><g
       id="g112"><g
         id="g114"><path
           d="m 330.594,526.003 c -2.401,-0.336 -4.625,-1.022 -6.66,-2.049 v 0 c -2.035,-1.028 -3.77,-2.343 -5.199,-3.935 v 0 c -1.43,-1.592 -2.461,-3.415 -3.095,-5.463 v 0 c -0.636,-2.047 -0.778,-4.22 -0.442,-6.516 v 0 c 0.002,-0.014 -10e-4,-0.039 -0.007,-0.072 v 0 c -0.007,-0.034 -0.026,-0.072 -0.06,-0.113 v 0 c 0.425,-2.465 1.555,-4.703 3.362,-6.728 v 0 c 1.808,-2.026 4.16,-3.536 7.053,-4.556 v 0 c 2.895,-1.018 6.067,-1.31 9.555,-0.89 v 0 c 3.239,0.506 6.028,1.615 8.397,3.346 v 0 c 2.367,1.733 4.133,3.848 5.295,6.364 v 0 c 1.161,2.516 1.636,5.141 1.398,7.883 v 0 c -0.287,2.196 -0.983,4.159 -2.1,5.886 v 0 c -1.117,1.726 -2.565,3.156 -4.347,4.281 v 0 c -1.781,1.126 -3.804,1.912 -6.061,2.352 v 0 c -1.345,0.261 -2.728,0.392 -4.148,0.392 v 0 c -0.964,0 -1.945,-0.06 -2.941,-0.182 m -2.144,-26.299 c -2.035,0.802 -3.748,2.021 -5.138,3.665 v 0 c -1.388,1.644 -2.294,3.529 -2.7,5.662 v 0 c -0.365,2.51 -0.172,4.741 0.594,6.692 v 0 c 0.766,1.951 2,3.535 3.702,4.741 v 0 c 1.702,1.206 3.731,2 6.073,2.374 v 0 c 2.384,0.291 4.545,0.027 6.468,-0.784 v 0 c 1.921,-0.811 3.494,-2.012 4.718,-3.594 v 0 c 1.223,-1.58 2.037,-3.335 2.455,-5.256 v 0 c 0.125,-0.639 0.204,-1.12 0.235,-1.443 v 0 c 0.139,-1.421 0.057,-2.809 -0.242,-4.167 v 0 c -0.299,-1.359 -0.849,-2.636 -1.646,-3.833 v 0 c -0.796,-1.198 -1.869,-2.219 -3.218,-3.067 v 0 c -1.348,-0.848 -2.965,-1.44 -4.855,-1.783 v 0 c -0.576,-0.069 -1.145,-0.103 -1.705,-0.103 v 0 c -1.645,0 -3.223,0.298 -4.741,0.896"
           style="fill:url(#linearGradient124);stroke:none"
           id="path126"
           inkscape:connector-curvature="0" /></g></g></g></g><g
   id="g128"><g
     id="g130"
     clip-path="url(#clipPath134)"><g
       id="g136"><g
         id="g138"><path
           d="m 363.692,528.203 c -3.853,-0.23 -7.705,-0.501 -11.554,-0.814 v 0 c -0.027,-0.06 -0.054,-0.12 -0.082,-0.181 v 0 c 0.718,-0.18 1.257,-0.507 1.617,-0.981 v 0 c 0.36,-0.474 0.599,-1.039 0.718,-1.695 v 0 c 0.119,-0.656 0.227,-1.605 0.323,-2.848 v 0 c 0.437,-5.647 0.874,-11.294 1.311,-16.942 v 0 c 0.148,-1.925 0.148,-3.339 0,-4.244 v 0 c -0.148,-0.904 -0.662,-1.561 -1.538,-1.971 v 0 c 0.004,-0.058 0.009,-0.115 0.014,-0.173 v 0 c 2.94,0.24 5.882,0.453 8.825,0.641 v 0 c -0.001,0.029 -0.003,0.058 -0.005,0.086 v 0 c -0.636,0.277 -1.111,0.629 -1.422,1.056 v 0 c -0.312,0.427 -0.54,0.996 -0.684,1.709 v 0 c -0.145,0.712 -0.265,1.762 -0.358,3.15 v 0 c -0.449,6.611 -0.898,13.221 -1.347,19.833 v 0 c 1.19,0.318 2.23,0.505 3.116,0.559 v 0 c 1.775,0.11 3.296,-0.17 4.555,-0.83 v 0 c 1.261,-0.663 1.995,-1.799 2.21,-3.404 v 0 c 0.064,-1.31 -0.296,-2.452 -1.074,-3.426 v 0 c -0.779,-0.975 -1.797,-1.763 -3.056,-2.366 v 0 c -1.259,-0.603 -2.561,-1.043 -3.909,-1.32 v 0 c 1.609,-1.952 3.2,-3.912 4.775,-5.879 v 0 c 1.976,-2.012 3.928,-4.036 5.858,-6.071 v 0 c 0.706,-0.819 1.466,-1.435 2.281,-1.848 v 0 c 0.816,-0.412 1.829,-0.595 3.04,-0.55 v 0 c 1.592,0.056 3.185,0.107 4.777,0.149 v 0 c -1.89,1.096 -3.453,2.12 -4.681,3.082 v 0 c -1.228,0.963 -2.121,1.754 -2.672,2.38 v 0 c -2.53,2.721 -5.099,5.423 -7.708,8.105 v 0 c 2.344,0.807 4.119,1.86 5.324,3.176 v 0 c 1.205,1.315 1.874,2.733 1.995,4.26 v 0 c -0.091,2.296 -1.012,4.151 -2.782,5.55 v 0 c -1.546,1.222 -3.749,1.846 -6.594,1.846 v 0 c -0.411,0 -0.836,-0.013 -1.273,-0.039"
           style="fill:url(#linearGradient148);stroke:none"
           id="path150"
           inkscape:connector-curvature="0" /></g></g></g></g><g
   id="g152"><g
     id="g154"
     clip-path="url(#clipPath158)"><g
       id="g160"><g
         id="g162"><path
           d="m 399.07,528.969 c 1.157,-0.324 1.727,-1.159 1.714,-2.5 v 0 c -0.009,-0.958 -0.3,-2.062 -0.868,-3.311 v 0 c -2.577,-5.97 -5.068,-11.961 -7.474,-17.967 v 0 c -2.687,6.786 -5.481,13.551 -8.379,20.292 v 0 c -0.459,1.23 -0.763,2.214 -0.909,2.953 v 0 c 0.07,0.146 0.101,0.337 0.096,0.575 v 0 c -2.428,-0.056 -4.854,-0.128 -7.28,-0.217 v 0 c 10e-4,-0.057 0.003,-0.115 0.006,-0.173 v 0 c 0.823,-0.503 1.445,-1.064 1.867,-1.681 v 0 c 0.423,-0.617 0.889,-1.512 1.396,-2.686 v 0 c 2.879,-6.498 5.66,-13.018 8.342,-19.559 v 0 c 0.575,-1.397 1.124,-2.401 1.651,-3.014 v 0 c 0.527,-0.614 1.47,-1.316 2.822,-2.113 v 0 c 0.485,-0.279 0.97,-0.557 1.453,-0.836 v 0 c 4.067,10.156 8.382,20.263 12.942,30.311 v 0 c -2.459,0.05 -4.919,0.083 -7.378,0.098 v 0 c -0.001,-0.057 -0.001,-0.115 -0.001,-0.172"
           style="fill:url(#linearGradient172);stroke:none"
           id="path174"
           inkscape:connector-curvature="0" /></g></g></g></g><g
   id="g176"><g
     id="g178"
     clip-path="url(#clipPath182)"><g
       id="g184"><g
         id="g186"><path
           d="m 408.573,528.909 c 0.975,-0.355 1.573,-0.968 1.798,-1.836 v 0 c 0.225,-0.867 0.317,-2 0.277,-3.397 v 0 c -0.184,-6.477 -0.368,-12.952 -0.552,-19.428 v 0 c -0.068,-2.356 -0.81,-3.753 -2.223,-4.202 v 0 c -10e-4,-0.057 -0.003,-0.115 -0.005,-0.172 v 0 c 6.489,-0.158 12.975,-0.44 19.455,-0.847 v 0 c 0.821,1.888 1.65,3.773 2.486,5.656 v 0 c -0.03,0.002 -0.06,0.005 -0.09,0.006 v 0 c -2.275,-1.531 -4.771,-2.28 -7.517,-2.259 v 0 c -0.25,0.07 -0.563,0.115 -0.938,0.134 v 0 c -0.618,0.067 -1.541,0.185 -2.769,0.349 v 0 c -1.23,0.164 -2.448,0.318 -3.655,0.464 v 0 l 0.397,10.532 c 1.269,-0.048 2.536,-0.1 3.804,-0.158 v 0 c 2.12,-0.096 3.444,-0.595 3.97,-1.482 v 0 c 0.047,-0.003 0.093,-0.005 0.139,-0.007 v 0 c 0.085,1.576 0.169,3.152 0.252,4.728 v 0 c -0.047,0.002 -0.094,0.005 -0.142,0.008 v 0 c -0.355,-0.141 -1.09,-0.232 -2.204,-0.278 v 0 c -0.249,0.069 -0.634,0.117 -1.154,0.141 v 0 c -1.515,0.07 -3.03,0.134 -4.546,0.192 v 0 c 0.105,2.757 0.208,5.516 0.313,8.273 v 0 c 0.16,0.016 0.353,0.037 0.578,0.064 v 0 c 0.225,0.027 0.487,0.048 0.783,0.061 v 0 c 0.298,0.013 0.729,0.016 1.294,0.007 v 0 c 0.565,-0.011 1.29,-0.035 2.179,-0.077 v 0 c 1.52,-0.071 2.727,-0.254 3.622,-0.544 v 0 c 0.895,-0.29 1.666,-0.787 2.313,-1.489 v 0 c 0.036,-0.002 0.072,-0.003 0.107,-0.006 v 0 c 0.101,1.723 0.202,3.446 0.303,5.169 v 0 c -0.037,0.002 -0.073,0.004 -0.108,0.007 v 0 c -0.282,-0.114 -0.801,-0.203 -1.554,-0.27 v 0 c -0.19,0.068 -0.45,0.111 -0.779,0.129 v 0 c -5.275,0.285 -10.553,0.491 -15.832,0.619 v 0 c 0,-0.029 -10e-4,-0.058 -0.002,-0.087"
           style="fill:url(#linearGradient196);stroke:none"
           id="path198"
           inkscape:connector-curvature="0" /></g></g></g></g><g
   id="g200"><g
     id="g202"
     clip-path="url(#clipPath206)"><g
       id="g208"><g
         id="g210"><path
           d="m 430.013,523.129 c 0.067,-0.005 0.136,-0.009 0.203,-0.014 v 0 c 1.348,1.06 3.4,1.497 6.147,1.286 v 0 c 1.373,-0.105 2.745,-0.216 4.117,-0.332 v 0 c -0.607,-7.177 -1.214,-14.354 -1.822,-21.531 v 0 c -0.198,-2.327 -1.02,-3.648 -2.46,-3.972 v 0 c -0.004,-0.058 -0.009,-0.115 -0.014,-0.173 v 0 c 3.101,-0.249 6.199,-0.527 9.295,-0.833 v 0 c 0.006,0.057 0.012,0.114 0.017,0.172 v 0 c -0.983,0.669 -1.596,1.367 -1.835,2.099 v 0 c -0.237,0.733 -0.315,1.554 -0.229,2.465 v 0 c 0.668,7.11 1.337,14.22 2.005,21.33 v 0 c 1.505,-0.142 3.009,-0.29 4.513,-0.443 v 0 c 1.1,-0.114 1.981,-0.327 2.646,-0.638 v 0 c 0.663,-0.311 1.09,-0.814 1.278,-1.509 v 0 c 0.068,-0.008 0.135,-0.015 0.204,-0.022 v 0 c 0.697,1.687 1.399,3.374 2.108,5.059 v 0 c -0.069,0.008 -0.136,0.016 -0.205,0.024 v 0 c -0.452,-0.188 -1.319,-0.21 -2.602,-0.07 v 0 c -6.287,0.682 -12.583,1.252 -18.886,1.711 v 0 c -1.054,0.077 -1.788,0.247 -2.207,0.514 v 0 c -0.065,0.005 -0.129,0.009 -0.193,0.014 v 0 c -0.7,-1.712 -1.393,-3.424 -2.08,-5.137"
           style="fill:url(#linearGradient220);stroke:none"
           id="path222"
           inkscape:connector-curvature="0" /></g></g></g></g><g
   id="g224"><g
     id="g226"
     clip-path="url(#clipPath230)"><g
       id="g232"><g
         id="g234"><path
           d="m 457.013,525.532 c 0.939,-0.441 1.481,-1.107 1.627,-1.991 v 0 c 0.146,-0.885 0.135,-2.021 -0.032,-3.408 v 0 c -0.769,-6.434 -1.539,-12.866 -2.309,-19.298 v 0 c -0.281,-2.34 -1.148,-3.664 -2.597,-3.983 v 0 c -0.008,-0.057 -0.014,-0.114 -0.02,-0.172 v 0 c 6.456,-0.745 12.903,-1.615 19.335,-2.611 v 0 c 0.991,1.806 1.99,3.608 2.995,5.407 v 0 c -0.03,0.004 -0.06,0.01 -0.091,0.014 v 0 c -2.409,-1.318 -4.967,-1.838 -7.708,-1.567 v 0 c -0.242,0.094 -0.55,0.167 -0.923,0.22 v 0 c -0.611,0.123 -1.521,0.325 -2.733,0.599 v 0 c -1.211,0.275 -2.413,0.539 -3.604,0.795 v 0 c 0.45,3.484 0.9,6.968 1.35,10.453 v 0 c 1.261,-0.163 2.521,-0.331 3.781,-0.504 v 0 c 2.107,-0.288 3.384,-0.906 3.828,-1.836 v 0 c 0.045,-0.008 0.092,-0.014 0.138,-0.021 v 0 c 0.227,1.562 0.453,3.125 0.679,4.686 v 0 c -0.047,0.007 -0.094,0.014 -0.141,0.021 v 0 c -0.367,-0.108 -1.108,-0.132 -2.224,-0.077 v 0 c -0.243,0.093 -0.622,0.175 -1.139,0.246 v 0 c -1.506,0.208 -3.012,0.409 -4.519,0.604 v 0 c 0.353,2.737 0.707,5.474 1.06,8.211 v 0 c 0.161,10e-4 0.356,0.005 0.584,0.012 v 0 c 0.226,0.007 0.489,0.003 0.787,-0.011 v 0 c 0.298,-0.014 0.728,-0.051 1.29,-0.111 v 0 c 0.563,-0.061 1.286,-0.152 2.168,-0.274 v 0 c 1.511,-0.209 2.7,-0.502 3.567,-0.872 v 0 c 0.865,-0.37 1.591,-0.934 2.173,-1.693 v 0 c 0.036,-0.004 0.071,-0.01 0.106,-0.015 v 0 c 0.257,1.706 0.513,3.414 0.77,5.12 v 0 c -0.036,0.005 -0.072,0.011 -0.107,0.016 v 0 c -0.291,-0.088 -0.817,-0.129 -1.574,-0.127 v 0 c -0.185,0.085 -0.44,0.152 -0.768,0.199 v 0 c -5.238,0.763 -10.486,1.448 -15.739,2.055 v 0 c -0.004,-0.029 -0.007,-0.058 -0.01,-0.087"
           style="fill:url(#linearGradient244);stroke:none"
           id="path246"
           inkscape:connector-curvature="0" /></g></g></g></g><g
   id="g248"><g
     id="g250"
     clip-path="url(#clipPath254)"><g
       id="g256"><g
         id="g258"><path
           d="m 488.064,521.012 c -1.965,-0.205 -3.607,-0.782 -4.922,-1.726 v 0 c -1.314,-0.942 -2.131,-2.256 -2.461,-3.932 v 0 c -0.206,-1.266 -0.064,-2.458 0.422,-3.58 v 0 c 0.485,-1.12 1.137,-2.093 1.953,-2.919 v 0 c 0.815,-0.825 1.688,-1.546 2.617,-2.162 v 0 c 1.69,-1.09 3.369,-2.189 5.039,-3.296 v 0 c 2.912,-1.909 4.149,-3.888 3.753,-5.901 v 0 c -0.292,-1.485 -1.241,-2.439 -2.838,-2.875 v 0 c -1.598,-0.435 -3.294,-0.523 -5.101,-0.268 v 0 c -1.652,0.358 -3.269,0.973 -4.858,1.844 v 0 c -1.588,0.872 -3.014,2.006 -4.284,3.409 v 0 c 0.125,-1.918 0.245,-3.836 0.36,-5.753 v 0 c 2.698,-1.283 5.181,-2.135 7.473,-2.547 v 0 c 2.428,-0.438 4.672,-0.478 6.747,-0.112 v 0 c 2.076,0.364 3.814,1.1 5.217,2.216 v 0 c 1.402,1.115 2.346,2.525 2.82,4.238 v 0 c 0.342,1.65 0.027,3.17 -0.955,4.554 v 0 c -0.984,1.384 -2.173,2.548 -3.564,3.487 v 0 c -1.215,0.854 -2.436,1.703 -3.662,2.548 v 0 c -1.838,1.23 -3.264,2.323 -4.27,3.289 v 0 c -1.006,0.965 -1.402,2.085 -1.18,3.363 v 0 c 0.052,0.298 0.155,0.609 0.309,0.933 v 0 c 0.4,0.852 1.198,1.447 2.396,1.779 v 0 c 1.198,0.331 2.552,0.359 4.057,0.079 v 0 c 1.377,-0.257 2.705,-0.741 3.982,-1.451 v 0 c 1.275,-0.71 2.36,-1.613 3.253,-2.703 v 0 c 0.324,1.607 0.647,3.214 0.971,4.821 v 0 c -2.402,1.145 -4.706,1.92 -6.895,2.332 v 0 c -1.542,0.289 -3.014,0.433 -4.411,0.433 v 0 c -0.673,0 -1.33,-0.034 -1.968,-0.1"
           style="fill:url(#linearGradient268);stroke:none"
           id="path270"
           inkscape:connector-curvature="0" /></g></g></g></g><g
   aria-label="MILKFRUIT"
   transform="matrix(1,0,0,-1,96.52,228.5098)"
   style="font-variant:normal;font-weight:normal;font-stretch:normal;font-size:87.0923996px;font-family:France;-inkscape-font-specification:FrancePlain;writing-mode:lr-tb;fill:#1c1a1a;fill-opacity:1;fill-rule:nonzero;stroke:none"
   id="text274"><path
     d="m 4.9542307,-11.41812 4.8904424,-36.912208 q 0.042526,-0.403993 0.2764159,-1.892389 0.233891,-1.488395 0.233891,-2.21133 0,-3.253208 -3.0405793,-4.699077 v -0.170103 H 22.644874 q 0.340205,2.232593 0.956826,3.742252 l 16.542453,38.570706 14.820167,-37.698932 q 0.786723,-1.807337 1.041876,-4.614026 h 15.054058 v 0.170103 q -2.36017,0.829248 -2.700375,4.869179 0.191365,0.53157 0.191365,1.743549 l 5.655903,41.4624462 q 0.233891,2.5940608 0.637884,4.1249819 0.403993,1.5096582 1.318293,2.6578491 0.9143,1.126928 2.572798,2.10501646 L 78.56602,0 H 61.74715 v -0.34020469 q 3.402047,-1.10566521 3.402047,-5.23064701 0,-0.8930373 -0.08505,-2.0837537 -0.08505,-1.1907164 -0.08505,-1.4883955 L 60.365069,-48.861898 40.845825,1.0418769 Q 38.251764,-0.74419775 36.614529,-2.870477 34.998557,-5.0180191 33.701527,-8.1861753 L 16.457402,-48.861898 11.226755,-8.8878474 q 0,1.743549 -0.170103,2.6153235 0.106314,2.6365863 0.9143,3.8910911 0.807987,1.233242 2.317645,2.04122811 V 0 H 0.17010234 V -0.34020469 Q 2.5302724,-2.1475421 3.4658352,-4.8053912 4.4226609,-7.4845031 4.9542307,-11.41812 Z"
     style=""
     id="path974" /><path
     d="m 85.35736,-12.289894 v -33.425111 q 0,-5.358223 -0.595359,-7.824707 -0.595358,-2.466484 -3.146893,-3.593412 v -0.170103 h 16.542453 v 0.170103 q -1.658498,0.807986 -2.466484,2.126279 -0.786723,1.29703 -1.041877,3.402047 -0.233891,2.105016 -0.233891,5.889793 v 33.425111 q 0,4.3801351 0.276417,6.6127283 0.297679,2.2325933 1.084402,3.4233097 0.786723,1.1694536 2.381433,1.91365131 V 0 H 81.615108 V -0.34020469 Q 84.14538,-1.2970304 84.740739,-3.9336167 85.35736,-6.570203 85.35736,-12.289894 Z"
     style=""
     id="path976" /><path
     d="m 108.68179,-10.88655 v -35.700229 q 0,-4.422661 -0.70167,-6.974196 -0.70168,-2.572798 -3.21068,-3.572149 v -0.170103 h 16.6275 v 0.170103 q -2.33891,0.850511 -3.12563,3.12563 -0.78672,2.253856 -0.87178,5.507063 0.0851,0.68041 0.0851,1.913652 v 39.6125829 q 2.46648,0.063788 7.05924,0.3827303 4.59277,0.3189419 5.57085,0.3189419 3.78478,0 7.20809,-1.1056652 3.44457,-1.1056653 7.59082,-4.2100329 l 0.19136,0.170102 L 140.66103,0 h -35.89159 v -0.34020469 q 3.91235,-1.36081871 3.91235,-8.71774511 z"
     style=""
     id="path978" /><path
     d="m 163.47431,-29.789173 13.92712,-18.541155 q 2.44523,-3.104368 2.44523,-5.230647 0,-2.253856 -2.61533,-3.572149 v -0.170103 h 15.86205 l -20.22092,25.685454 17.69064,23.2614954 q 1.84987,2.4026956 3.91236,4.1249818 2.08375,1.7010234 6.44262,3.89109111 V 0 h -8.88784 q -2.84922,0 -4.91171,-0.78672334 -2.04123,-0.78672336 -3.31699,-1.93491416 -1.27577,-1.1694536 -2.10502,-2.4452212 -0.80799,-1.2970303 -1.31829,-2.147542 z m -10.01478,17.159074 v -32.914803 q 0,-5.060545 -0.65915,-7.76092 -0.63788,-2.721637 -3.2532,-3.827302 v -0.170103 h 16.7976 v 0.170103 q -2.53027,1.020614 -3.18942,3.50836 -0.63788,2.487747 -0.63788,7.909759 v 33.255008 q 0,4.5927636 0.23389,6.7190429 0.25515,2.1262793 1.02061,3.2957329 0.76546,1.1481908 2.48775,2.10501651 V 0 h -16.54245 v -0.34020469 q 2.55153,-1.12692801 3.14689,-3.74225151 0.59536,-2.6365863 0.59536,-8.5476428 z"
     style=""
     id="path980" /><path
     d="m 401.93822,-8.7177451 v -37.8690339 -1.573447 q 0,-3.487098 -0.76546,-5.719691 -0.7442,-2.253856 -3.16816,-3.253207 v -0.170103 h 27.87552 q 0.87178,0 1.40334,0.170103 2.10502,-0.29768 2.70038,-0.701673 h 0.3402 l -0.1701,10.184878 h -0.1701 q -1.70102,-1.934914 -4.10372,-2.657849 -2.40269,-0.722935 -6.44263,-0.722935 -5.59211,0 -8.63269,0.510307 v 16.117197 l 8.29249,0.170102 q 4.42266,0 5.99611,-0.595358 h 0.1701 v 9.313104 h -0.1701 q -0.95683,-1.552184 -2.5728,-2.041229 -1.61597,-0.489044 -4.91171,-0.489044 l -6.80409,0.170103 v 18.2009502 q 0,0.5315699 -0.1701,1.1481909 0.21263,2.9342654 0.97809,5.1668586 0.76546,2.2325933 2.95552,3.01931661 V 0 H 398.0046 v -0.34020469 q 3.93362,-1.36081871 3.93362,-8.37754041 z"
     style=""
     id="path982" /><path
     d="m 438.85725,-12.289894 v -33.425111 q 0,-3.678463 -0.19137,-5.63464 -0.1701,-1.956177 -1.02061,-3.423309 -0.85051,-1.488396 -2.70038,-2.190068 l 0.17011,-0.340205 h 20.36975 q 9.16427,0 13.67198,4.358873 4.52897,4.358872 4.52897,11.141703 -0.48904,4.48645 -3.89109,8.207438 -3.40205,3.720989 -9.86593,5.719692 l 13.33177,16.648766 q 1.44587,1.9136517 4.7416,4.8904427 Q 481.31904,-3.3807841 486.50717,0 h -8.88785 q -3.38079,0 -5.61338,-1.3182932 -2.21133,-1.3182931 -4.06119,-3.8273027 L 457.75987,-17.669381 449.7438,-29.789173 q 3.69972,-0.552832 7.18682,-2.105016 3.50836,-1.573447 5.74096,-4.316347 2.23259,-2.764163 2.23259,-6.633992 -0.36147,-4.762865 -3.61468,-6.910407 -3.2532,-2.147542 -7.97354,-2.147542 -2.36017,0 -5.57086,0.701672 v 39.102276 q 0,4.1037189 0.25516,6.2299982 0.27641,2.1262793 1.06314,3.4445724 0.78672,1.3182932 2.50901,2.25385606 V 0 H 435.115 v -0.34020469 q 2.53027,-0.99935131 3.12563,-3.61467481 0.61662,-2.6365863 0.61662,-8.3350145 z"
     style=""
     id="path984" /><path
     d="m 484.41798,-17.499279 v -29.278865 q 0,-3.359522 -0.34021,-5.166859 -0.31894,-1.8286 -1.12693,-2.934265 -0.80798,-1.105666 -2.46648,-2.253856 v -0.170103 h 16.73382 v 0.170103 q -2.65785,1.126928 -3.29574,3.529623 -0.63788,2.381433 -0.63788,7.016722 v 25.515351 q 0,8.164913 3.59341,12.0560038 3.61468,3.8910911 9.48321,4.0611935 4.03993,0 7.56955,-1.4246072 3.55089,-1.4246071 5.65591,-4.1249821 2.10501,-2.721637 2.10501,-6.315049 v -30.639685 q 0,-8.292489 -3.76351,-9.67457 v -0.170103 h 16.56371 v 0.170103 q -3.93361,1.29703 -3.93361,8.972898 v 39.0172251 q 0,7.4845031 3.93361,8.80279621 V 0 h -12.8002 v -5.7409541 q -2.7429,3.4020469 -7.33566,5.27317266 -4.59276,1.87112574 -10.86529,1.87112574 -5.6559,-0.2551535 -9.97225,-2.5302723 -4.31635,-2.2751189 -6.71904,-6.4638891 -2.38143,-4.1887699 -2.38143,-9.9084619 z"
     style=""
     id="path986" /><path
     d="m 544.68269,-12.289894 v -33.425111 q 0,-5.358223 -0.59536,-7.824707 -0.59535,-2.466484 -3.14689,-3.593412 v -0.170103 h 16.54245 v 0.170103 q -1.65849,0.807986 -2.46648,2.126279 -0.78672,1.29703 -1.04188,3.402047 -0.23389,2.105016 -0.23389,5.889793 v 33.425111 q 0,4.3801351 0.27642,6.6127283 0.29768,2.2325933 1.0844,3.4233097 0.78672,1.1694536 2.38143,1.91365131 V 0 h -16.54245 v -0.34020469 q 2.53027,-0.95682571 3.12563,-3.59341201 0.61662,-2.6365863 0.61662,-8.3562773 z"
     style=""
     id="path988" /><path
     d="M 575.51285,-8.5263799 V -51.030703 h -7.3144 q -7.3144,0 -10.71645,3.380784 h -0.36147 l 3.06185,-10.35498 h 0.3402 q 1.14819,0.701672 3.93362,0.701672 h 33.34006 q 3.40204,0 4.52897,-0.701672 h 0.36147 l -2.70038,10.35498 h -0.36146 q -0.70168,-1.97744 -2.55154,-2.679112 -1.8286,-0.701672 -4.76286,-0.701672 h -8.01608 v 42.1428556 q 0,2.7003747 0.85051,4.7841284 0.85052,2.0837537 3.76352,3.76351431 V 0 h -17.32918 v -0.34020469 q 3.93362,-1.29703041 3.93362,-8.18617521 z"
     style=""
     id="path990" /></g>
<g
   id="g276"><g
     id="g278"
     clip-path="url(#clipPath282)"><g
       id="g284"
       transform="translate(406.0501,237.1995)"><path
         d="m 0,0 c -4.723,-5.049 -10.19,-8.353 -16.635,-8.457 -9.23,0.466 -15.072,5.199 -16.051,12.507 -1.086,8.101 3.654,16.085 10.91,18.943 1.928,0.759 2.941,-0.083 4.287,-0.926 C -10.372,17.608 -5.073,11.356 -0.18,4.69 0.943,3.159 1.741,1.861 0,0 m -15.791,50.691 c 5.29,0.063 7.661,-2.807 7.581,-9.174 -0.067,-5.246 -3.917,-11.538 -7.029,-11.484 -3.02,0.052 -7.925,7.761 -7.943,12.484 -0.02,5.274 2.55,8.116 7.391,8.174 M 29.1,-7.214 c -0.802,1.565 -2.088,0.356 -3.104,-0.01 -5.982,-2.152 -9.662,0.169 -12.977,5.362 -3.267,5.118 -4.374,9.485 -0.561,14.725 1.604,2.204 2.374,5.076 3.252,7.733 1.852,5.609 2.825,11.842 11.234,12.118 -0.278,0.515 -0.556,1.029 -0.834,1.544 H 7.892 c 3.14,-2.594 6.846,-4.034 5.247,-8.484 C 11.263,20.554 9.661,15.221 6.194,9.765 1.249,16.702 -4.61,22.095 -11.317,26.664 c 10.561,8.753 13.304,16.373 8.431,22.766 -4.276,5.609 -15.539,6.762 -22.105,2.238 -2.74,-1.888 -4.539,-4.412 -5.363,-7.7 -1.766,-7.041 1.838,-12.25 6.374,-17.309 -5.162,-2.689 -9.736,-5.238 -13.124,-9.352 -9.143,-11.104 -4.48,-26.028 9.469,-29.22 10.258,-2.347 20.139,-1.191 27.928,6.888 2.792,2.895 3.87,2.53 5.817,-0.905 4.259,-7.515 14.518,-9.247 21.381,-4.082 0.97,0.73 2.303,1.444 1.609,2.798"
         style="fill:#1c1a1a;fill-opacity:1;fill-rule:nonzero;stroke:none"
         id="path286"
         inkscape:connector-curvature="0" /></g></g></g><g
   id="g288"><g
     id="g290"
     clip-path="url(#clipPath294)"><g
       id="g296"><g
         id="g298"><path
           d="m 410.175,160.369 c -3.604,-2.703 -12.939,-6.118 -13.88,-9.593 v 0 c 4.65,-0.032 9.564,0.8 14.202,1.795 v 0 c 1.362,0.292 2.781,0.641 3.843,1.4 v 0 c 1.188,0.85 1.728,2.063 2.216,3.211 v 0 c 1.156,2.727 2.309,5.456 3.458,8.185 v 0 c -3.847,-0.266 -6.943,-2.826 -9.839,-4.998"
           style="fill:url(#linearGradient308);stroke:none"
           id="path310"
           inkscape:connector-curvature="0" /></g></g></g></g><g
   id="g312"><g
     id="g314"
     clip-path="url(#clipPath318)"><g
       id="g320"><g
         id="g322"><path
           d="m 256.172,465.764 c 0.601,-9.313 14.004,-14.609 21.405,-18.394 v 0 c 20.091,-10.273 46.732,-29.33 62.845,-45.826 v 0 c 0.006,-0.005 0.013,-0.008 0.018,-0.013 v 0 c -5.035,-4.306 -8.909,-9.873 -10.657,-16.378 v 0 c -2.504,-9.319 -0.723,-19.533 3.968,-27.87 v 0 c 1.485,-2.64 3.246,-5.053 5.229,-7.244 v 0 c -4.617,-4.21 -3.893,-13.208 0.637,-17.556 v 0 c -0.474,0.106 -0.951,0.195 -1.422,0.306 v 0 c -1.521,0.357 -3.097,0.778 -4.271,1.809 v 0 c -2.164,1.9 -2.107,5.767 0.114,7.603 v 0 c 0.538,0.445 1.284,0.82 1.575,1.458 v 0 c 0.119,0.141 0.226,0.297 0.301,0.487 v 0 c -3.904,1.88 -13.062,-3.348 -16.396,-5.426 v 0 c -2.749,-1.712 -5.562,-4.347 -5.231,-7.569 v 0 c 0.228,-2.214 1.977,-4.041 3.996,-4.975 v 0 c 2.021,-0.934 4.294,-1.131 6.515,-1.278 v 0 c 0.675,-0.044 1.351,-0.074 2.027,-0.112 v 0 c 15.597,-9.305 11.786,-23.645 -0.911,-33.395 v 0 c -44.886,-34.468 -29.864,-70.054 0,-85.961 v 0 c 14.615,-7.785 35.781,-12.095 57.918,-13.135 v 0 c 1.007,-2.398 2.425,-4.767 4.72,-5.964 v 0 c 0.99,-0.516 2.089,-0.785 3.194,-0.942 v 0 c 0.259,-0.037 0.519,-0.067 0.78,-0.092 v 0 l 0.828,-11.394 c -7.237,0.134 -14.379,-0.051 -20.846,-0.915 v 0 c -13.36,-1.786 -26.908,-3.814 -39.162,-9.427 v 0 c -6.326,-2.898 -13.024,-8.274 -12.188,-15.182 v 0 c 0.836,-6.913 8.542,-10.494 15.226,-12.445 v 0 c 36.77,-10.733 76.508,-11.098 113.469,-1.041 v 0 c 5.22,1.42 11.698,3.017 15.75,6.673 v 0 c -4.657,1.601 -15.768,-4.375 -21.039,-5.566 v 0 c -7.392,-1.669 -14.922,-2.678 -22.473,-3.266 v 0 c -15.286,-1.189 -30.652,-0.586 -45.94,0.261 v 0 c -13.932,0.772 -28.353,1.843 -40.63,8.476 v 0 c -5.31,2.869 -10.654,8.692 -8.224,14.217 v 0 c 1.648,3.75 6.085,5.252 10.051,6.272 v 0 c 17.647,4.544 35.688,7.555 53.853,9 v 0 c -3.493,-4.518 -8.252,-5.852 -12.387,-9.025 v 0 c 4.194,-1.45 9.639,2.807 13.535,4.507 v 0 c 0.714,0.313 1.446,0.636 2.224,0.677 v 0 c 0.939,0.051 1.845,-0.312 2.73,-0.63 v 0 c 4.939,-1.772 9.548,-4.773 14.735,-3.977 v 0 c -4.212,2.199 -8.51,4.462 -11.763,7.926 v 0 c -0.32,0.341 -0.654,0.701 -1.003,1.056 v 0 c 3.321,0.178 6.645,0.311 9.97,0.384 v 0 c 11.366,0.252 26.675,-3.593 36.641,-9.064 v 0 c 0.715,-0.393 1.443,-0.834 1.889,-1.517 v 0 c 0.629,-0.958 0.583,-2.203 0.402,-3.334 v 0 c -0.91,-5.697 -4.856,-10.818 -10.132,-13.15 v 0 c -3.448,-1.524 -11.798,-1.062 -15.56,-1.314 v 0 c -27.367,-1.835 -52.509,-3.124 -64.06,1.7 v 0 c 6.236,-5.102 15.575,-7.004 22.523,-7.324 v 0 c 18.056,-0.834 38.265,0.189 56.024,2.022 v 0 c 5.687,0.587 11.466,1.252 16.716,3.517 v 0 c 5.248,2.264 9.982,6.396 11.6,11.879 v 0 c 0.352,1.198 0.533,2.565 -0.115,3.633 v 0 c -0.42,0.694 -1.128,1.155 -1.819,1.579 v 0 c -12.744,7.823 -27.789,11.291 -42.721,12.082 v 0 c -7.521,0.397 -15.914,0.999 -24.285,1.244 v 0 l 0.807,11.814 c 0.306,0.083 0.61,0.174 0.908,0.285 v 0 c 1.157,0.429 2.242,1.083 3.138,1.933 v 0 c 0.803,0.763 1.144,1.759 1.821,2.563 v 0 c -1.632,-1.941 -4.315,-2.637 -6.845,-2.826 v 0 c -0.768,-0.057 -1.562,-0.075 -2.284,0.193 v 0 c -0.681,0.252 -1.246,0.738 -1.78,1.231 v 0 c -0.652,0.602 -1.281,1.23 -1.886,1.88 v 0 c -0.322,0.345 -0.642,0.764 -0.807,1.199 v 0 c 28.141,-0.623 57.086,3.952 75.572,13.327 v 0 c 30.25,15.34 44.886,51.493 0,85.961 v 0 c -12.942,9.938 -16.667,24.648 0,33.932 v 0 l -1.038,-0.039 c 3.126,0.877 6.015,1.946 8.27,3.036 v 0 c 4.161,2.011 8.051,6.052 5.876,9.563 v 0 c -0.688,1.11 -1.892,1.951 -3.154,2.653 v 0 c -4.569,2.541 -10.088,3.578 -15.56,4.413 v 0 c 3.176,6.686 4.505,14.263 2.034,21.441 v 0 c -0.35,1.013 -1.99,0.306 -1.652,-0.675 v 0 c 2.886,-8.384 0.842,-17.229 -4.154,-24.553 v 0 c -0.716,-1.048 0.969,-0.96 1.509,-0.17 v 0 c 0.67,0.985 1.272,1.998 1.811,3.034 v 0 c 2.066,-1.333 4.914,-1.904 7.521,-2.535 v 0 c 3.291,-0.798 6.915,-2.276 7.603,-5.006 v 0 c 0.471,-1.867 -0.642,-3.785 -2.181,-5.224 v 0 c -3.324,-3.109 -8.445,-4.529 -13.432,-5.286 v 0 c -4.504,-0.683 -9.11,-0.934 -13.496,-2.041 v 0 c 3.556,-0.983 8.21,-0.816 12.864,-0.03 v 0 c -13.136,-8.918 -9.497,-22.178 1.935,-31.271 v 0 c 41.499,-33.005 27.968,-67.623 0,-82.313 v 0 c -31.744,-16.672 -96.853,-17.502 -128.578,0 v 0 c -27.611,15.233 -41.499,49.308 0,82.313 v 0 c 11.707,9.312 15.245,22.994 0.959,31.907 v 0 c 3.576,-0.13 7.153,-0.211 10.731,-0.283 v 0 c 6.832,-0.14 13.663,-0.28 20.495,-0.419 v 0 c 11.367,-0.232 36.808,-2.189 47.854,0.5 v 0 c -23.307,-2.35 -60.716,2.072 -84.141,2.296 v 0 c -2.059,0.02 -4.167,0.029 -6.102,0.734 v 0 c -1.935,0.704 -3.697,2.261 -4.038,4.292 v 0 c -0.34,2.022 0.807,4.063 2.399,5.356 v 0 c 1.593,1.292 3.577,1.981 5.517,2.645 v 0 c 3.078,1.053 6.156,2.107 9.237,3.162 v 0 c -1.229,-0.781 -2.461,-1.695 -3.441,-2.628 v 0 c -1.534,-1.458 -2.571,-3.801 -1.629,-5.696 v 0 c 0.803,-1.615 2.703,-2.312 4.445,-2.782 v 0 c 7.908,-2.137 16.156,-2.621 24.337,-3.041 v 0 c 10.778,-0.554 35.614,-2.746 46.189,-0.594 v 0 c -0.049,0.051 -0.105,0.089 -0.158,0.133 v 0 c 4.648,-1.217 9.389,-1.813 13.739,-1.916 v 0 c 15.184,-0.36 31.074,6.017 38.444,21.184 v 0 c 3.613,7.438 4.754,16.419 1.855,24.361 v 0 c -2.925,8.011 -9.142,14.212 -15.901,18.51 v 0 c -0.763,0.485 -1.54,0.942 -2.325,1.381 v 0 c 0.39,0.075 0.763,0.191 0.906,0.324 v 0 c 7.629,7.099 10.405,18.373 7.225,28.291 v 0 c -2.224,6.938 -7.425,12.207 -13.746,15.452 v 0 c 4.523,1.598 7.977,6.07 7.19,11.075 v 0 c -0.816,5.192 -4.548,5.022 -8.372,4.851 v 0 c -1.662,-0.075 -3.342,-0.149 -4.806,0.218 v 0 c 0.019,0.037 0.03,0.074 0.02,0.11 v 0 c -1.236,4.625 -2.526,9.098 -0.097,13.408 v 0 c 1.439,2.554 4.752,5.16 7.557,6.038 v 0 c 5.342,1.67 11.408,1.595 8.772,-3.675 v 0 c -0.119,-0.24 2.072,-0.018 2.088,0.56 v 0 c 0.215,7.555 -10.107,4.54 -13.895,2.486 v 0 c -6.627,-3.592 -8.23,-10.684 -6.924,-17.538 v 0 c -0.728,0.673 -1.367,1.441 -2.274,2.021 v 0 c -1.089,0.697 -2.337,0.932 -3.611,1.039 v 0 c -2.354,0.195 -5.044,0.126 -7.124,-1.11 v 0 c -5.445,-3.234 -4.448,-10.955 -0.61,-14.967 v 0 c 0.577,-0.603 2.564,0.2 1.925,0.868 v 0 c -3.183,3.328 -5.152,11.776 0.894,13.659 v 0 c 3.46,1.078 6.463,-0.247 8.883,-2.578 v 0 c 0.854,-0.821 1.799,-1.36 2.959,-1.631 v 0 c 1.375,-0.321 2.9,-0.157 4.427,0.007 v 0 c 2.1,0.226 4.205,0.453 5.927,-0.584 v 0 c 5.49,-3.309 0.708,-11.844 -3.755,-13.19 v 0 c -0.285,-0.085 -0.477,-0.218 -0.608,-0.365 v 0 c -3.119,1.415 -6.466,2.354 -9.839,2.769 v 0 c -9.285,1.142 -19.149,-1.207 -26.859,-6.527 v 0 c -6.479,-4.469 -13.664,-13.873 -11.098,-21.684 v 0 c -11.25,1.915 -22.686,1.725 -33.224,-2.741 v 0 c 0.029,0.16 0.002,0.327 -0.115,0.494 v 0 c -12.274,17.44 -38.794,40.728 -56.371,52.853 v 0 c -7.304,5.04 -16.744,10.896 -25.932,11.206 v 0 c -2.48,0.084 -5.438,-0.479 -6.891,-2.716 v 0 c -1.391,-2.142 -0.834,-5.05 1.587,-6 v 0 c 0.925,-0.363 3.102,1.007 1.887,1.484 v 0 c -1.35,0.562 -1.902,1.533 -1.658,2.91 v 0 c 1.837,2.33 3.997,3.084 6.481,2.264 v 0 c 1.891,-0.348 3.768,-0.912 5.584,-1.537 v 0 c 4.041,-1.389 7.874,-3.332 11.535,-5.522 v 0 c 6.716,-4.015 24.299,-16.681 30.25,-21.741 v 0 c 11.857,-10.081 22.317,-21.674 31.27,-34.396 v 0 c 0.076,-0.107 0.179,-0.184 0.301,-0.234 v 0 c -1.29,-0.625 -2.566,-1.311 -3.825,-2.076 v 0 c -1.167,-0.708 -2.293,-1.481 -3.38,-2.302 v 0 c -12.682,10.786 -27.579,23.253 -42.302,33.235 v 0 c -7.067,4.791 -22.667,12.987 -30.478,17.525 v 0 c -3.642,2.117 -7.76,4.268 -9.564,8.131 v 0 c -0.972,2.081 -1.718,4.626 -1.115,6.911 v 0 c 1.24,4.701 7.009,4.945 11.031,4.639 v 0 c 0.787,-0.061 2.888,1.323 1.473,1.431 v 0 c -0.804,0.062 -1.657,0.099 -2.532,0.099 v 0 c -6.032,0 -13.109,-1.749 -12.628,-9.215 m 150.136,-60.536 c -6.058,2.143 -12.413,4.063 -18.858,5.347 v 0 c -3.41,7.496 3.155,17.008 9.414,21.645 v 0 c 9.142,6.773 21.65,8.362 32.215,4.161 v 0 c 8.775,-3.488 15.619,-10.657 17.304,-20.084 v 0 c 1.561,-8.737 -1.129,-17.947 -7.533,-24.128 v 0 c -11.101,5.954 -24.144,7.399 -36.017,3.857 v 0 c -6.709,4.582 -14.98,6.999 -23.308,6.239 v 0 c -0.963,-0.088 -1.724,-1.175 -0.302,-1.044 v 0 c 7.66,0.698 15.331,-1.562 21.647,-5.824 v 0 c -3.101,-1.083 -6.108,-2.515 -8.964,-4.306 v 0 c -1.176,-0.738 0.664,-0.763 1.21,-0.421 v 0 c 2.763,1.734 5.67,3.088 8.663,4.09 v 0 c 6.879,-4.958 11.999,-12.336 13.456,-20.838 v 0 c 2.872,-16.75 -8.196,-33.816 -24.533,-37.92 v 0 c -1.942,1.497 -3.734,3.18 -5.292,5.107 v 0 c -4.838,5.981 -7.234,14.92 -4.715,22.585 v 0 c 3.174,9.656 12.899,12.943 21.537,13.498 v 0 c 0.618,0.039 2.203,1.103 0.853,1.017 v 0 c -6.706,-0.43 -13.843,-2.068 -19.13,-6.827 v 0 c -5.727,-5.155 -7.433,-13.255 -5.53,-20.867 v 0 c 1.609,-6.437 5.248,-11.343 9.943,-15.005 v 0 c -16.23,-2.85 -35.105,2.362 -46.682,14.427 v 0 c 0.238,0.14 0.487,0.27 0.753,0.381 v 0 c 1.61,0.666 0.166,1.756 -1.054,1.251 v 0 c -0.29,-0.121 -0.549,-0.275 -0.815,-0.421 v 0 c -0.571,0.645 -1.128,1.301 -1.657,1.981 v 0 c -10.686,13.743 -11.449,34.368 1.643,46.813 v 0 c 12.38,11.768 28.925,12.717 44.808,9.712 v 0 c 0.715,-1.433 1.795,-2.796 3.322,-4.043 v 0 c 0.445,-0.363 2.378,0.518 2.108,0.739 v 0 c -1.037,0.847 -1.852,1.757 -2.492,2.707 v 0 c 5.654,-1.243 11.185,-2.937 16.37,-4.773 v 0 c 0.059,-0.021 0.132,-0.03 0.215,-0.03 v 0 c 0.715,0 2.13,0.723 1.421,0.974 m -14.676,-69.947 c 6.038,1.624 11.576,4.618 16.049,9.278 v 0 c 6.036,6.289 9.758,14.845 10.024,23.576 v 0 c 0.343,11.217 -5.417,21.018 -13.94,27.235 v 0 c 10.75,2.998 22.434,1.53 32.574,-3.681 v 0 c 12.376,-6.36 23.24,-18.997 20.749,-34.755 v 0 c -2.6,-16.449 -15.944,-27.133 -30.709,-29.197 v 0 c -2.329,-0.326 -4.771,-0.495 -7.266,-0.495 v 0 c -9.451,0 -19.671,2.433 -27.481,8.039 m -36.574,-5.115 c -3.17,0.248 -6.327,0.645 -9.464,1.162 v 0 c 0.023,0.196 -0.114,0.369 -0.512,0.464 v 0 c -5.908,1.423 -8.983,12.262 -4.866,16.94 v 0 c 10.984,-11.136 27.967,-16.01 43.372,-14.816 v 0 c 1.964,0.153 3.902,0.432 5.8,0.831 v 0 c 3.697,-2.661 7.969,-4.606 12.396,-5.955 v 0 c -0.242,0.003 -0.485,-0.004 -0.72,-0.015 v 0 c -1.895,-0.086 -4.229,-0.125 -6.845,-0.125 v 0 c -12.144,0 -30.382,0.827 -39.161,1.514"
           style="fill:url(#linearGradient332);stroke:none"
           id="path334"
           inkscape:connector-curvature="0" /></g></g></g></g></g></svg>